<?xml version="1.0" encoding="UTF-8"?>
<svg version="1.1" xmlns="http://www.w3.org/2000/svg" width="600" height="600">
<path d="M0,0 L24,0 L51,3 L62,5 L78,9 L102,18 L127,31 L143,42 L160,56 L175,71 L184,82 L196,99 L208,120 L216,139 L223,160 L229,188 L230,199 L230,229 L227,248 L221,273 L212,299 L199,328 L186,352 L173,373 L158,395 L144,414 L130,433 L120,446 L108,462 L96,478 L86,492 L78,503 L62,526 L33,569 L26,580 L19,588 L15,590 L8,589 L4,587 L-2,579 L-4,577 L-11,566 L-23,547 L-38,525 L-49,509 L-59,495 L-69,481 L-78,469 L-87,457 L-99,441 L-115,420 L-125,406 L-135,392 L-155,362 L-169,338 L-180,316 L-190,292 L-198,266 L-202,249 L-205,225 L-205,199 L-203,176 L-196,149 L-191,135 L-185,122 L-178,108 L-168,92 L-154,74 L-135,55 L-133,55 L-133,53 L-122,44 L-105,32 L-78,18 L-53,9 L-34,4 L-13,1 Z " fill="#F2656B" transform="translate(287,4)"/>
<path d="M0,0 L7,0 L23,9 L33,14 L47,14 L65,8 L77,6 L89,6 L99,9 L99,13 L86,23 L72,34 L60,44 L57,51 L57,60 L60,68 L68,75 L74,77 L88,77 L100,72 L118,60 L126,54 L132,55 L150,69 L167,82 L180,92 L193,102 L195,105 L195,112 L192,117 L188,119 L182,118 L162,103 L145,90 L140,91 L141,97 L155,107 L170,119 L175,123 L176,125 L176,131 L172,136 L170,137 L164,137 L145,124 L130,113 L125,114 L126,119 L142,131 L154,140 L157,143 L157,150 L152,155 L150,156 L143,156 L139,154 L140,156 L140,163 L137,167 L125,169 L131,170 L128,173 L129,176 L127,179 L124,178 L125,176 L123,176 L123,181 L128,180 L128,182 L135,183 L135,186 L132,186 L132,184 L129,185 L125,182 L126,186 L126,188 L135,188 L133,191 L126,191 L128,192 L127,195 L123,196 L121,195 L121,200 L131,201 L130,197 L129,194 L133,195 L134,200 L133,202 L131,202 L131,204 L134,204 L133,207 L135,208 L135,204 L139,204 L140,201 L141,204 L145,203 L156,196 L169,185 L174,181 L176,181 L176,179 L187,170 L208,149 L217,138 L230,121 L234,114 L238,113 L241,114 L242,111 L246,114 L249,111 L253,110 L254,113 L256,113 L258,111 L261,111 L261,109 L265,109 L269,108 L269,112 L271,112 L272,113 L275,108 L281,109 L280,108 L281,106 L283,107 L283,109 L285,109 L285,107 L288,106 L294,107 L295,102 L302,104 L307,106 L308,108 L308,105 L306,104 L309,104 L309,102 L311,102 L312,98 L312,102 L318,103 L321,104 L320,111 L311,137 L298,166 L285,190 L272,211 L257,233 L243,252 L229,271 L219,284 L207,300 L195,316 L185,330 L177,341 L161,364 L132,407 L125,418 L118,426 L114,428 L107,427 L103,425 L97,417 L95,415 L88,404 L76,385 L61,363 L50,347 L40,333 L30,319 L21,307 L12,295 L0,279 L-16,258 L-26,244 L-36,230 L-56,200 L-68,180 L-68,173 L-66,173 L-67,170 L-65,170 L-65,172 L-54,172 L-54,174 L-52,174 L-53,170 L-49,171 L-48,169 L-43,167 L-40,167 L-39,169 L-37,169 L-36,167 L-36,170 L-33,167 L-29,166 L-26,166 L-26,168 L-19,168 L-21,167 L-21,164 L-17,165 L-13,164 L-10,163 L-6,164 L-5,162 L-3,161 L2,162 L4,161 L8,163 L7,159 L12,158 L13,160 L13,158 L21,159 L26,161 L36,170 L46,179 L63,192 L81,205 L92,212 L108,222 L113,224 L126,216 L135,210 L128,211 L128,206 L126,205 L125,207 L127,208 L123,210 L119,209 L117,208 L116,210 L115,205 L112,204 L113,201 L118,203 L118,200 L115,201 L113,200 L114,194 L113,193 L112,198 L111,195 L109,195 L109,191 L107,190 L108,187 L112,186 L113,190 L117,190 L116,186 L115,181 L117,176 L119,174 L117,174 L115,176 L116,169 L117,164 L112,167 L107,171 L105,172 L99,172 L94,168 L93,161 L101,151 L106,146 L114,146 L119,151 L119,158 L118,165 L120,166 L119,167 L123,169 L123,162 L125,161 L126,158 L126,150 L121,142 L113,138 L107,137 L104,130 L100,125 L96,123 L85,122 L79,112 L73,109 L63,108 L56,98 L48,93 L41,93 L32,98 L28,102 L24,101 L7,87 L-7,76 L-12,71 L-13,69 L-13,39 L-9,19 L-4,5 Z " fill="#07ADB0" transform="translate(188,166)"/>
<path d="M0,0 L26,0 L43,4 L54,9 L66,16 L72,20 L85,11 L95,6 L111,1 L117,0 L141,0 L155,3 L171,10 L182,18 L191,26 L201,39 L209,55 L214,70 L217,89 L217,110 L214,127 L207,148 L199,164 L188,181 L178,194 L165,209 L145,229 L138,235 L136,235 L136,237 L122,248 L109,258 L104,261 L100,260 L100,258 L99,260 L95,260 L95,264 L91,262 L94,262 L94,260 L91,260 L91,258 L93,258 L93,251 L90,251 L90,253 L92,254 L91,257 L83,257 L80,254 L81,251 L87,250 L88,248 L85,247 L89,246 L93,245 L86,245 L83,243 L85,242 L84,238 L87,238 L90,240 L92,240 L93,240 L90,239 L88,238 L88,236 L82,238 L83,232 L85,232 L85,234 L87,234 L89,230 L87,229 L90,227 L84,225 L84,224 L97,222 L99,219 L99,210 L103,211 L110,211 L115,208 L116,206 L116,199 L108,192 L94,182 L84,174 L85,169 L90,168 L108,181 L124,192 L130,192 L135,187 L135,181 L130,176 L114,163 L100,153 L99,147 L101,145 L106,146 L118,155 L139,171 L144,174 L150,173 L153,170 L154,168 L154,161 L149,156 L134,144 L118,132 L100,118 L90,111 L85,112 L69,123 L56,131 L48,134 L34,134 L25,130 L18,122 L16,116 L16,107 L20,99 L34,87 L47,77 L59,68 L59,66 L49,63 L37,63 L25,65 L7,71 L-7,71 L-21,64 L-33,57 L-40,57 L-44,64 L-49,79 L-52,95 L-52,125 L-51,129 L-47,131 L-30,145 L-16,156 L-12,157 L-5,151 L1,148 L8,148 L16,153 L22,161 L23,163 L36,165 L41,170 L44,174 L45,177 L56,178 L62,182 L67,189 L67,193 L76,194 L82,198 L87,206 L87,214 L85,218 L83,218 L83,225 L78,223 L77,216 L78,214 L78,207 L77,204 L74,203 L66,203 L59,210 L54,217 L55,224 L59,227 L65,227 L71,223 L74,220 L77,220 L77,228 L75,228 L76,230 L80,229 L77,234 L76,238 L78,246 L80,247 L75,246 L74,248 L70,245 L70,244 L68,244 L67,246 L70,247 L69,251 L72,252 L73,249 L75,250 L73,256 L78,256 L79,253 L78,259 L73,259 L72,260 L76,261 L77,264 L81,264 L84,264 L85,263 L86,260 L89,262 L88,267 L96,265 L91,270 L73,281 L68,279 L50,268 L40,261 L23,249 L9,238 L-5,226 L-11,220 L-10,216 L-8,216 L-6,222 L-2,224 L1,223 L0,221 L-4,223 L-1,218 L-3,218 L-3,220 L-6,219 L-6,216 L-3,215 L-3,212 L2,213 L2,210 L0,209 L2,208 L3,204 L4,206 L5,204 L8,205 L10,209 L7,209 L12,210 L8,212 L6,212 L6,214 L14,212 L13,215 L15,216 L15,218 L20,219 L21,217 L17,216 L16,214 L21,215 L20,206 L22,206 L23,204 L20,201 L16,199 L25,197 L34,187 L36,183 L36,178 L31,173 L24,173 L16,180 L13,180 L17,175 L15,174 L16,172 L13,173 L13,164 L10,159 L8,158 L0,158 L-9,166 L-11,170 L-10,178 L-5,182 L2,183 L1,188 L0,191 L1,193 L-3,193 L-1,194 L-2,199 L2,198 L2,200 L-1,202 L-4,203 L-6,198 L-6,200 L-9,202 L-12,201 L-14,200 L-12,203 L-9,204 L-11,208 L-7,208 L-8,212 L-10,212 L-11,214 L-12,214 L-15,214 L-20,212 L-29,202 L-40,188 L-50,174 L-59,158 L-66,143 L-72,122 L-74,108 L-74,91 L-71,71 L-65,53 L-57,38 L-49,28 L-38,17 L-24,8 L-13,3 Z " fill="#E3E1DD" transform="translate(228,110)"/>
<path d="M0,0 L7,0 L23,9 L33,14 L47,14 L65,8 L77,6 L89,6 L99,9 L99,13 L86,23 L72,34 L60,44 L57,51 L57,60 L60,68 L68,75 L74,77 L88,77 L100,72 L118,60 L126,54 L132,55 L150,69 L167,82 L180,92 L193,102 L195,105 L195,112 L192,117 L188,119 L182,118 L162,103 L145,90 L140,91 L141,97 L155,107 L170,119 L175,123 L176,125 L176,131 L172,136 L170,137 L164,137 L145,124 L130,113 L125,114 L126,119 L142,131 L154,140 L157,143 L157,150 L152,155 L150,156 L143,156 L139,154 L140,156 L140,163 L137,167 L125,169 L131,170 L128,173 L129,176 L127,179 L124,178 L125,176 L123,176 L123,181 L128,180 L128,182 L135,183 L135,186 L132,186 L132,184 L129,185 L125,182 L126,186 L126,188 L135,188 L133,191 L126,191 L128,192 L127,195 L123,196 L121,195 L121,200 L131,201 L130,197 L129,194 L133,195 L134,200 L133,202 L131,202 L131,204 L134,204 L133,207 L135,208 L135,204 L139,204 L140,201 L141,204 L145,203 L156,196 L169,185 L174,181 L176,181 L176,179 L187,170 L208,149 L217,138 L230,121 L234,114 L238,113 L241,114 L242,111 L246,114 L249,111 L253,110 L254,113 L256,113 L258,111 L261,111 L261,109 L265,109 L269,108 L269,112 L271,112 L272,113 L275,108 L281,109 L280,108 L281,106 L283,107 L283,109 L285,109 L285,107 L288,106 L294,107 L295,102 L302,104 L307,106 L308,108 L308,105 L306,104 L309,104 L309,102 L311,102 L312,98 L312,102 L318,103 L321,104 L320,111 L311,137 L298,166 L285,190 L272,211 L257,233 L243,252 L229,271 L222,271 L220,270 L220,272 L222,273 L218,272 L216,270 L216,263 L213,262 L214,259 L220,260 L222,259 L222,261 L224,261 L224,258 L222,258 L219,252 L219,249 L215,249 L215,245 L217,245 L217,242 L220,242 L217,241 L218,236 L221,232 L217,230 L215,234 L215,240 L212,237 L210,233 L207,234 L209,234 L208,238 L207,236 L202,235 L202,231 L200,231 L199,233 L198,231 L195,229 L194,228 L193,224 L188,225 L187,225 L183,226 L183,222 L182,227 L180,227 L179,229 L178,225 L177,229 L176,225 L174,225 L174,227 L172,226 L172,223 L170,221 L166,221 L160,226 L159,223 L156,222 L156,219 L151,219 L151,216 L149,216 L147,219 L144,218 L144,221 L138,219 L136,220 L134,219 L134,217 L131,218 L130,220 L128,219 L129,223 L131,223 L131,225 L126,224 L127,218 L129,218 L129,216 L127,215 L135,210 L128,211 L128,206 L126,205 L125,207 L127,208 L123,210 L119,209 L117,208 L116,210 L115,205 L112,204 L113,201 L118,203 L118,200 L115,201 L113,200 L114,194 L113,193 L112,198 L111,195 L109,195 L109,191 L107,190 L108,187 L112,186 L113,190 L117,190 L116,186 L115,181 L117,176 L119,174 L117,174 L115,176 L116,169 L117,164 L112,167 L107,171 L105,172 L99,172 L94,168 L93,161 L101,151 L106,146 L114,146 L119,151 L119,158 L118,165 L120,166 L119,167 L123,169 L123,162 L125,161 L126,158 L126,150 L121,142 L113,138 L107,137 L104,130 L100,125 L96,123 L85,122 L79,112 L73,109 L63,108 L56,98 L48,93 L41,93 L32,98 L28,102 L24,101 L7,87 L-7,76 L-12,71 L-13,69 L-13,39 L-9,19 L-4,5 Z M218,231 Z " fill="#28BBB0" transform="translate(188,166)"/>
<path d="M0,0 L5,1 L4,6 L2,6 L1,9 L-3,7 L-4,10 L-4,11 L-6,12 L-5,14 L-2,15 L-7,16 L-7,18 L-10,18 L-11,21 L-14,18 L-13,24 L-9,26 L-11,27 L-11,29 L-15,29 L-15,31 L-12,34 L-17,33 L-17,35 L-19,35 L-19,33 L-25,35 L-26,31 L-28,30 L-27,36 L-23,36 L-22,34 L-20,34 L-20,36 L-16,37 L-16,42 L-19,41 L-19,38 L-21,38 L-20,44 L-21,42 L-23,42 L-24,44 L-26,44 L-27,39 L-26,41 L-23,40 L-28,38 L-30,38 L-28,43 L-30,43 L-30,47 L-27,50 L-26,48 L-28,47 L-24,46 L-22,49 L-22,46 L-18,47 L-17,51 L-13,50 L-13,54 L-14,56 L-19,53 L-23,54 L-31,55 L-31,57 L-32,58 L-30,58 L-31,62 L-34,64 L-33,68 L-30,67 L-25,68 L-25,73 L-20,73 L-20,75 L-26,76 L-28,75 L-28,77 L-30,77 L-30,80 L-33,80 L-33,78 L-36,80 L-34,81 L-36,83 L-36,86 L-37,90 L-33,89 L-33,87 L-31,88 L-29,91 L-31,94 L-36,94 L-37,96 L-35,97 L-37,97 L-37,99 L-32,99 L-30,98 L-29,98 L-26,96 L-23,97 L-20,98 L-8,96 L3,96 L3,97 L-18,100 L-30,103 L-45,111 L-55,119 L-65,129 L-74,143 L-80,156 L-84,169 L-87,189 L-87,206 L-84,224 L-79,241 L-68,264 L-56,282 L-45,296 L-36,306 L-31,311 L-27,312 L-26,309 L-24,310 L-22,309 L-21,306 L-25,306 L-24,302 L-27,302 L-28,298 L-25,297 L-25,299 L-21,297 L-24,295 L-19,296 L-18,300 L-16,300 L-15,298 L-12,298 L-12,296 L-16,297 L-17,291 L-14,290 L-15,288 L-12,281 L-19,281 L-25,276 L-26,268 L-22,262 L-14,255 L-6,255 L-1,260 L0,262 L0,270 L2,270 L3,275 L1,278 L8,271 L10,270 L17,270 L22,275 L23,276 L22,283 L14,293 L9,298 L10,301 L12,303 L6,304 L8,311 L7,313 L3,313 L7,315 L6,318 L-1,315 L-2,312 L-4,312 L-8,312 L-8,310 L-4,309 L-8,307 L-5,306 L-8,303 L-11,303 L-12,306 L-10,307 L-12,308 L-11,312 L-17,311 L-16,314 L-18,315 L-20,314 L-20,316 L-18,317 L-17,316 L-15,316 L-16,320 L-13,318 L-12,322 L-18,323 L-22,319 L-22,314 L-25,317 L-29,315 L-33,315 L-33,313 L-37,314 L-41,312 L-40,316 L-44,314 L-46,314 L-46,317 L-51,316 L-53,317 L-57,316 L-59,318 L-63,319 L-67,319 L-72,321 L-72,319 L-75,318 L-75,321 L-72,322 L-75,323 L-82,322 L-84,321 L-88,323 L-91,323 L-94,324 L-96,321 L-98,323 L-102,323 L-103,326 L-104,324 L-107,324 L-106,328 L-108,328 L-108,326 L-115,327 L-119,326 L-120,327 L-122,327 L-121,330 L-123,332 L-135,308 L-145,284 L-153,258 L-157,241 L-160,217 L-160,191 L-158,168 L-151,141 L-146,127 L-140,114 L-133,100 L-123,84 L-109,66 L-90,47 L-88,47 L-88,45 L-77,36 L-60,24 L-39,13 L-31,11 L-22,7 L-14,8 L-12,11 L-11,6 L-9,4 L-5,2 Z M-19,37 Z " fill="#E1506E" transform="translate(242,12)"/>
<path d="M0,0 L6,0 L20,9 L28,14 L33,12 L43,6 L46,6 L46,8 L44,8 L43,12 L45,13 L48,15 L48,13 L46,13 L45,9 L47,8 L51,7 L51,9 L56,8 L56,10 L60,10 L62,6 L62,8 L64,8 L66,5 L68,6 L68,9 L73,8 L75,11 L74,12 L78,15 L83,10 L87,10 L89,12 L91,11 L90,16 L91,15 L93,15 L94,13 L95,15 L97,16 L99,17 L98,14 L101,11 L101,14 L106,13 L110,14 L111,17 L114,18 L117,21 L119,21 L121,26 L125,27 L124,25 L124,22 L130,22 L129,24 L131,26 L131,23 L134,20 L139,22 L138,24 L136,24 L134,31 L137,30 L137,32 L134,32 L135,37 L132,37 L138,39 L136,40 L139,46 L139,48 L142,47 L142,53 L141,51 L131,50 L131,52 L133,53 L134,60 L137,62 L137,60 L144,60 L145,62 L131,81 L117,99 L105,116 L94,131 L78,154 L63,176 L60,172 L61,168 L57,169 L52,162 L55,161 L55,159 L49,160 L51,162 L47,164 L44,162 L43,158 L39,157 L41,160 L39,160 L38,164 L35,162 L36,161 L34,159 L35,157 L33,155 L35,150 L39,151 L41,156 L45,152 L43,149 L42,147 L41,150 L39,150 L38,144 L38,141 L32,141 L32,143 L34,144 L30,143 L31,140 L33,140 L32,136 L33,132 L28,132 L32,128 L28,128 L29,125 L31,125 L30,122 L28,124 L25,124 L26,120 L32,118 L29,115 L32,114 L28,112 L30,109 L32,109 L34,111 L33,107 L27,107 L26,105 L19,107 L16,104 L18,104 L18,102 L20,102 L21,105 L22,101 L23,98 L21,97 L21,99 L16,100 L15,103 L13,99 L9,102 L7,102 L8,98 L11,95 L9,94 L9,96 L5,95 L4,90 L8,94 L8,90 L5,89 L8,88 L10,90 L13,90 L10,87 L3,87 L3,89 L1,89 L0,93 L-4,95 L0,88 L-4,89 L-6,89 L-14,90 L-14,88 L-7,86 L-9,86 L-9,83 L-10,86 L-15,86 L-12,82 L-14,80 L-13,79 L-15,77 L-8,77 L-8,74 L-4,75 L-3,71 L-5,71 L-5,73 L-9,74 L-13,74 L-15,69 L-14,66 L-13,65 L-17,64 L-16,59 L-23,58 L-24,60 L-27,57 L-23,56 L-24,53 L-22,53 L-20,49 L-17,49 L-17,47 L-13,47 L-13,49 L-11,48 L-15,46 L-15,44 L-13,43 L-15,42 L-15,39 L-17,41 L-21,43 L-17,43 L-18,48 L-23,50 L-23,52 L-26,51 L-26,49 L-28,49 L-27,54 L-28,58 L-30,58 L-30,54 L-33,53 L-30,52 L-30,47 L-28,47 L-28,45 L-31,46 L-33,40 L-33,43 L-39,43 L-36,37 L-38,36 L-38,34 L-38,31 L-35,31 L-37,28 L-42,30 L-42,25 L-44,25 L-44,28 L-48,29 L-49,27 L-52,23 L-52,20 L-54,24 L-55,23 L-51,26 L-52,28 L-56,29 L-56,31 L-59,30 L-59,28 L-62,25 L-64,22 L-68,20 L-67,16 L-64,16 L-65,18 L-64,19 L-62,23 L-58,24 L-58,20 L-57,17 L-55,17 L-55,15 L-53,14 L-49,10 L-45,10 L-45,12 L-40,11 L-39,14 L-36,16 L-36,18 L-29,19 L-29,16 L-30,13 L-25,13 L-26,9 L-22,12 L-20,12 L-19,10 L-10,9 L-14,9 L-15,7 L-11,6 L-8,3 L-5,3 L-5,5 L-8,5 L-7,8 L-3,5 L-2,7 L1,7 L1,11 L5,11 L3,10 L3,5 L-2,4 Z M-51,21 L-50,24 L-47,23 Z M135,21 Z M33,102 L33,107 L35,106 L35,102 Z M-18,41 Z M44,164 L47,164 L47,166 L43,165 Z M59,172 Z " fill="#0EB4B5" transform="translate(271,376)"/>
<path d="M0,0 L26,0 L43,4 L54,9 L66,16 L71,20 L77,19 L78,22 L80,22 L78,26 L78,30 L75,31 L73,35 L72,34 L71,36 L73,41 L79,44 L78,50 L76,50 L75,48 L73,48 L73,46 L76,46 L75,44 L71,43 L69,42 L69,44 L61,45 L57,40 L58,37 L61,40 L61,37 L63,37 L62,35 L57,35 L54,35 L56,41 L55,43 L58,44 L53,45 L55,46 L52,51 L54,52 L50,52 L50,54 L52,54 L52,58 L49,59 L49,57 L47,57 L48,60 L52,62 L29,64 L13,69 L7,71 L-7,71 L-21,64 L-33,57 L-40,57 L-44,64 L-49,79 L-52,95 L-52,125 L-51,129 L-47,131 L-30,145 L-16,156 L-12,157 L-5,151 L1,148 L8,148 L16,153 L22,161 L23,163 L36,165 L41,170 L44,174 L45,177 L56,178 L62,182 L67,189 L67,193 L76,194 L82,198 L87,206 L87,214 L85,218 L83,218 L83,225 L78,223 L77,216 L78,214 L78,207 L77,204 L74,203 L66,203 L59,210 L54,217 L55,224 L59,227 L65,227 L71,223 L74,220 L77,220 L77,228 L75,228 L76,230 L80,229 L77,234 L76,238 L78,246 L80,247 L75,246 L74,248 L70,245 L70,244 L68,244 L67,246 L70,247 L69,251 L72,252 L73,249 L75,250 L73,256 L78,256 L79,253 L78,259 L73,259 L72,260 L76,261 L77,264 L81,264 L84,264 L85,263 L86,260 L89,262 L88,267 L96,265 L91,270 L73,281 L68,279 L50,268 L40,261 L23,249 L9,238 L-5,226 L-11,220 L-10,216 L-8,216 L-6,222 L-2,224 L1,223 L0,221 L-4,223 L-1,218 L-3,218 L-3,220 L-6,219 L-6,216 L-3,215 L-3,212 L2,213 L2,210 L0,209 L2,208 L3,204 L4,206 L5,204 L8,205 L10,209 L7,209 L12,210 L8,212 L6,212 L6,214 L14,212 L13,215 L15,216 L15,218 L20,219 L21,217 L17,216 L16,214 L21,215 L20,206 L22,206 L23,204 L20,201 L16,199 L25,197 L34,187 L36,183 L36,178 L31,173 L24,173 L16,180 L13,180 L17,175 L15,174 L16,172 L13,173 L13,164 L10,159 L8,158 L0,158 L-9,166 L-11,170 L-10,178 L-5,182 L2,183 L1,188 L0,191 L1,193 L-3,193 L-1,194 L-2,199 L2,198 L2,200 L-1,202 L-4,203 L-6,198 L-6,200 L-9,202 L-12,201 L-14,200 L-12,203 L-9,204 L-11,208 L-7,208 L-8,212 L-10,212 L-11,214 L-12,214 L-15,214 L-20,212 L-29,202 L-40,188 L-50,174 L-59,158 L-66,143 L-72,122 L-74,108 L-74,91 L-71,71 L-65,53 L-57,38 L-49,28 L-38,17 L-24,8 L-13,3 Z " fill="#E3E1DC" transform="translate(228,110)"/>
<path d="M0,0 L7,0 L23,9 L33,14 L47,14 L65,8 L77,6 L89,6 L99,9 L99,13 L86,23 L72,34 L60,44 L57,51 L57,60 L60,68 L68,75 L74,77 L88,77 L100,72 L118,60 L126,54 L132,55 L150,69 L167,82 L180,92 L193,102 L195,105 L195,112 L192,117 L188,119 L182,118 L162,103 L145,90 L140,91 L141,97 L155,107 L170,119 L175,123 L176,125 L176,131 L172,136 L170,137 L164,137 L145,124 L130,113 L125,114 L126,119 L142,131 L154,140 L157,143 L157,150 L152,155 L150,156 L143,156 L139,154 L140,156 L140,163 L137,167 L134,168 L125,168 L124,164 L126,158 L126,150 L121,142 L113,138 L107,137 L104,130 L100,125 L96,123 L85,122 L79,112 L73,109 L63,108 L56,98 L48,93 L41,93 L32,98 L28,102 L24,101 L7,87 L-7,76 L-12,71 L-13,69 L-13,39 L-9,19 L-4,5 Z " fill="#415C68" transform="translate(188,166)"/>
<path d="M0,0 L2,4 L2,17 L3,15 L5,15 L4,20 L7,19 L7,21 L11,21 L13,21 L15,23 L18,22 L18,20 L16,19 L18,16 L23,18 L24,14 L26,17 L31,17 L29,20 L32,22 L36,20 L40,22 L40,24 L44,26 L54,24 L54,26 L58,28 L59,28 L62,25 L67,28 L67,30 L69,30 L70,28 L71,35 L73,33 L76,49 L82,67 L94,90 L106,107 L115,118 L126,131 L132,133 L133,130 L135,131 L137,130 L138,127 L134,127 L135,123 L132,123 L131,119 L134,118 L134,120 L138,118 L135,116 L140,117 L141,121 L143,121 L144,119 L147,119 L147,117 L143,118 L142,112 L145,111 L144,109 L147,102 L140,102 L134,97 L133,89 L137,83 L145,76 L153,76 L158,81 L159,83 L159,91 L161,91 L162,96 L160,99 L167,92 L169,91 L176,91 L181,96 L182,97 L181,104 L173,114 L168,119 L169,122 L171,124 L165,125 L167,132 L166,134 L162,134 L166,136 L165,139 L158,136 L157,133 L155,133 L151,133 L151,131 L155,130 L151,128 L154,127 L151,124 L148,124 L147,127 L149,128 L147,129 L148,133 L142,132 L143,135 L141,136 L139,135 L139,137 L141,138 L142,137 L144,137 L143,141 L146,139 L147,143 L141,144 L137,140 L137,135 L134,138 L130,136 L126,136 L126,134 L122,135 L118,133 L119,137 L115,135 L113,135 L113,138 L108,137 L106,138 L102,137 L100,139 L96,140 L92,140 L87,142 L87,140 L84,139 L84,142 L87,143 L84,144 L77,143 L75,142 L71,144 L68,144 L65,145 L63,142 L61,144 L57,144 L56,147 L55,145 L52,145 L53,149 L51,149 L51,147 L44,148 L40,147 L39,148 L37,148 L38,151 L36,153 L24,129 L14,105 L6,79 L2,62 L-1,38 L-1,12 Z M25,20 L28,22 L28,20 Z " fill="#5C81A6" transform="translate(83,191)"/>
<path d="M0,0 L3,3 L15,24 L23,43 L30,64 L36,92 L37,103 L37,133 L34,152 L30,170 L27,171 L19,168 L17,168 L16,174 L12,172 L4,169 L2,173 L-7,173 L-7,175 L-9,175 L-9,173 L-10,174 L-11,176 L-16,175 L-19,179 L-21,180 L-21,178 L-23,178 L-25,175 L-27,175 L-28,177 L-31,175 L-31,177 L-33,177 L-34,179 L-38,180 L-39,177 L-41,176 L-42,178 L-47,181 L-47,179 L-50,178 L-50,181 L-57,180 L-52,170 L-45,156 L-39,137 L-36,120 L-36,99 L-39,80 L-45,61 L-46,57 L-51,48 L-50,45 L-50,43 L-49,40 L-46,41 L-45,39 L-48,38 L-46,37 L-43,39 L-42,37 L-36,36 L-39,39 L-40,41 L-37,42 L-35,46 L-33,46 L-33,48 L-28,49 L-26,45 L-24,47 L-22,46 L-22,43 L-16,43 L-21,42 L-20,40 L-18,40 L-18,37 L-14,36 L-13,33 L-9,34 L-7,31 L-2,32 L-2,21 L0,16 L4,18 L5,13 L0,4 Z " fill="#E97D6A" transform="translate(480,100)"/>
<path d="M0,0 L7,1 L13,4 L16,3 L32,13 L48,26 L56,33 L68,45 L77,56 L86,68 L88,76 L92,83 L90,88 L87,87 L85,93 L84,102 L81,103 L79,102 L77,105 L73,104 L70,107 L68,107 L68,110 L67,111 L71,113 L66,114 L65,115 L62,118 L60,117 L58,119 L53,118 L49,115 L47,112 L45,113 L46,108 L48,107 L44,107 L43,110 L41,109 L40,113 L40,111 L37,111 L38,116 L36,116 L38,121 L42,128 L41,131 L32,116 L20,102 L7,92 L-6,86 L-7,82 L-17,81 L-30,79 L-44,78 L-46,76 L-44,72 L-40,74 L-39,73 L-43,71 L-40,70 L-40,68 L-44,68 L-45,71 L-46,69 L-49,71 L-54,70 L-54,68 L-56,67 L-49,64 L-51,64 L-52,57 L-54,56 L-54,53 L-56,52 L-54,51 L-52,52 L-52,50 L-49,51 L-49,53 L-47,53 L-47,50 L-45,49 L-46,45 L-48,45 L-47,48 L-49,48 L-50,47 L-51,49 L-54,48 L-52,44 L-45,42 L-42,49 L-40,52 L-43,52 L-45,56 L-48,56 L-50,56 L-48,63 L-48,60 L-45,61 L-43,64 L-45,65 L-41,66 L-37,65 L-38,62 L-41,63 L-42,59 L-44,57 L-40,57 L-39,59 L-35,60 L-35,62 L-27,64 L-28,63 L-30,61 L-33,61 L-34,57 L-30,57 L-32,50 L-33,48 L-31,48 L-31,40 L-35,41 L-42,40 L-43,34 L-41,34 L-41,36 L-37,36 L-37,34 L-39,33 L-35,32 L-30,34 L-25,34 L-25,32 L-23,32 L-23,30 L-25,29 L-27,25 L-23,23 L-22,21 L-14,22 L-14,25 L-12,23 L-12,20 L-10,20 L-11,17 L-5,17 L-3,19 L-2,18 L0,17 L2,19 L4,21 L4,24 L6,23 L11,25 L9,20 L14,20 L13,16 L9,15 L4,13 L2,8 L2,2 L0,2 Z M-37,20 L-36,24 L-35,27 L-35,26 L-32,25 L-27,27 L-27,30 L-35,29 L-36,31 L-39,27 L-38,23 L-41,24 L-41,22 Z " fill="#F46E66" transform="translate(394,30)"/>
<path d="M0,0 L7,0 L12,8 L17,24 L20,42 L20,67 L16,73 L-1,87 L-13,97 L-18,95 L-34,82 L-50,70 L-63,60 L-79,48 L-84,46 L-91,46 L-110,59 L-121,66 L-129,69 L-140,69 L-147,65 L-150,60 L-150,52 L-143,44 L-126,31 L-116,23 L-99,11 L-88,6 L-84,5 L-72,5 L-55,9 L-41,14 L-27,14 L-15,9 Z " fill="#405B66" transform="translate(403,166)"/>
<path d="M0,0 L3,1 L3,4 L8,3 L10,6 L9,7 L13,10 L18,5 L22,5 L24,7 L26,6 L25,11 L26,10 L28,10 L29,8 L30,10 L32,11 L34,12 L33,9 L36,6 L36,9 L41,8 L45,9 L46,12 L49,13 L52,16 L54,16 L56,21 L60,22 L59,20 L59,17 L65,17 L64,19 L66,21 L66,18 L69,15 L74,17 L73,19 L71,19 L69,26 L72,25 L72,27 L69,27 L70,32 L67,32 L73,34 L71,35 L74,41 L74,43 L77,42 L77,48 L76,46 L66,45 L66,47 L68,48 L69,55 L72,57 L72,55 L79,55 L80,57 L66,76 L52,94 L40,111 L29,126 L13,149 L4,162 L3,162 L4,155 L6,155 L4,148 L-1,149 L-2,147 L2,148 L2,145 L0,145 L-1,142 L3,141 L4,145 L9,143 L13,141 L13,138 L9,138 L9,140 L12,141 L7,142 L5,137 L4,135 L12,134 L15,135 L15,130 L13,127 L12,129 L8,128 L5,130 L1,130 L-2,131 L-4,125 L-1,126 L2,125 L2,127 L6,123 L4,121 L5,117 L3,117 L4,114 L6,114 L8,121 L11,120 L9,116 L11,114 L10,111 L8,109 L12,109 L12,111 L14,111 L14,109 L18,110 L20,108 L23,108 L25,114 L27,114 L29,110 L32,107 L30,107 L29,109 L27,110 L25,103 L22,104 L22,107 L19,104 L17,99 L15,99 L15,101 L13,100 L17,93 L13,92 L15,91 L16,88 L12,87 L10,92 L8,94 L7,97 L4,96 L6,92 L6,90 L4,86 L6,83 L6,82 L5,78 L2,76 L8,73 L8,77 L9,82 L12,82 L12,78 L15,78 L12,74 L12,72 L3,73 L3,69 L5,69 L3,67 L4,63 L10,65 L12,67 L12,70 L15,70 L12,66 L12,64 L10,64 L10,61 L8,61 L7,55 L6,58 L5,62 L-4,62 L-6,60 L-9,56 L-15,58 L-15,56 L-18,57 L-18,54 L-15,51 L-14,53 L-16,53 L-16,55 L-13,54 L-13,50 L-11,50 L-11,54 L-8,51 L-6,47 L-4,47 L-2,43 L-1,41 L-4,44 L-6,44 L-7,38 L-7,37 L-9,37 L-10,39 L-12,39 L-13,34 L-11,34 L-12,31 L-18,32 L-18,30 L-22,28 L-22,25 L-24,25 L-25,27 L-27,27 L-31,29 L-33,28 L-32,23 L-34,23 L-34,20 L-29,22 L-25,21 L-25,18 L-27,16 L-27,14 L-31,14 L-32,10 L-34,8 L-22,1 L-19,1 L-19,3 L-21,3 L-22,7 L-20,8 L-17,10 L-17,8 L-19,8 L-20,4 L-18,3 L-14,2 L-14,4 L-9,3 L-9,5 L-5,5 L-3,1 L-3,3 L-1,3 Z M70,16 Z M-5,39 L-4,41 L-3,39 Z M5,146 Z M0,71 L2,72 L1,74 Z M0,77 L2,78 L-1,81 L-3,80 L-3,78 Z M13,87 Z " fill="#17BAB4" transform="translate(336,381)"/>
<path d="M0,0 L1,4 L7,5 L10,6 L9,13 L0,39 L-13,68 L-26,92 L-37,110 L-39,106 L-36,106 L-36,101 L-33,98 L-38,98 L-38,95 L-40,101 L-42,100 L-43,103 L-45,98 L-43,98 L-42,93 L-46,92 L-48,90 L-48,93 L-52,94 L-52,90 L-56,93 L-62,92 L-63,85 L-66,85 L-68,89 L-71,87 L-72,86 L-75,83 L-74,81 L-76,79 L-72,79 L-76,78 L-77,80 L-80,80 L-81,82 L-83,81 L-84,80 L-85,83 L-82,84 L-83,86 L-86,86 L-87,80 L-88,83 L-88,86 L-95,85 L-96,87 L-97,83 L-103,86 L-106,84 L-109,85 L-111,87 L-113,87 L-114,87 L-116,87 L-116,81 L-122,82 L-123,80 L-122,78 L-124,80 L-125,83 L-127,83 L-127,81 L-132,82 L-132,79 L-117,65 L-103,51 L-94,40 L-81,23 L-77,16 L-73,15 L-70,16 L-69,13 L-65,16 L-62,13 L-58,12 L-57,15 L-55,15 L-53,13 L-50,13 L-50,11 L-46,11 L-42,10 L-42,14 L-40,14 L-39,15 L-36,10 L-30,11 L-31,10 L-30,8 L-28,9 L-28,11 L-26,11 L-26,9 L-23,8 L-17,9 L-16,4 L-9,6 L-4,8 L-3,10 L-3,7 L-5,6 L-2,6 L-2,4 L0,4 Z " fill="#47B4A4" transform="translate(499,264)"/>
<path d="M0,0 L2,2 L2,0 L10,1 L15,3 L25,12 L35,21 L52,34 L55,37 L52,38 L58,42 L57,45 L55,45 L52,48 L50,44 L45,46 L45,49 L39,51 L38,47 L33,53 L31,49 L27,52 L26,50 L24,51 L25,53 L21,52 L15,54 L12,49 L10,51 L9,53 L4,51 L3,50 L6,53 L5,56 L2,55 L2,52 L-1,57 L-6,57 L-6,55 L-8,54 L-13,49 L-12,55 L-15,56 L-16,59 L-14,61 L-18,62 L-18,64 L-23,65 L-26,62 L-26,67 L-29,65 L-32,67 L-41,68 L-42,77 L-40,78 L-43,78 L-59,54 L-69,39 L-79,22 L-79,15 L-77,15 L-78,12 L-76,12 L-76,14 L-65,14 L-65,16 L-63,16 L-64,12 L-60,13 L-59,11 L-54,9 L-51,9 L-50,11 L-48,11 L-47,9 L-47,12 L-44,9 L-40,8 L-37,8 L-37,10 L-30,10 L-32,9 L-32,6 L-28,7 L-24,6 L-21,5 L-17,6 L-16,4 L-14,3 L-9,4 L-7,3 L-3,5 L-4,1 Z " fill="#249FB2" transform="translate(199,324)"/>
<path d="M0,0 L1,0 L3,16 L3,46 L0,65 L-4,83 L-7,84 L-15,81 L-17,81 L-18,87 L-22,85 L-30,82 L-32,86 L-41,86 L-41,88 L-43,88 L-43,86 L-44,87 L-45,89 L-50,88 L-53,92 L-55,93 L-55,91 L-57,91 L-59,88 L-61,88 L-62,90 L-65,88 L-65,90 L-67,90 L-68,92 L-72,93 L-73,90 L-75,89 L-76,91 L-81,94 L-81,92 L-84,91 L-84,94 L-91,93 L-86,83 L-79,69 L-73,50 L-70,33 L-69,33 L-67,18 L-64,17 L-64,19 L-62,20 L-60,19 L-55,21 L-51,20 L-48,21 L-44,21 L-44,23 L-37,22 L-36,20 L-36,24 L-34,21 L-30,21 L-30,24 L-28,24 L-28,27 L-24,25 L-20,19 L-19,21 L-18,19 L-17,18 L-18,13 L-13,14 L-9,14 L-7,13 L-5,15 L-5,13 L-1,12 L0,16 Z " fill="#B39780" transform="translate(514,187)"/>
<path d="M0,0 L11,0 L17,4 L22,11 L22,15 L31,16 L37,20 L42,28 L42,36 L40,40 L38,40 L38,47 L33,45 L32,38 L33,36 L33,29 L32,26 L29,25 L21,25 L14,32 L9,39 L10,46 L14,49 L20,49 L26,45 L29,42 L32,42 L32,50 L30,50 L31,52 L35,51 L32,56 L31,60 L33,68 L35,69 L30,68 L29,70 L25,67 L25,66 L23,66 L22,68 L25,69 L24,73 L27,74 L28,71 L30,72 L28,78 L33,78 L34,75 L33,81 L28,81 L27,82 L31,83 L32,86 L36,86 L39,86 L40,85 L41,82 L44,84 L43,89 L51,87 L46,92 L28,103 L23,101 L5,90 L-5,83 L-22,71 L-36,60 L-50,48 L-56,42 L-55,38 L-53,38 L-51,44 L-47,46 L-44,45 L-45,43 L-49,45 L-46,40 L-48,40 L-48,42 L-51,41 L-51,38 L-48,37 L-48,34 L-43,35 L-43,32 L-45,31 L-43,30 L-42,26 L-41,28 L-40,26 L-37,27 L-35,31 L-38,31 L-33,32 L-37,34 L-39,34 L-39,36 L-31,34 L-32,37 L-30,38 L-30,40 L-25,41 L-24,39 L-28,38 L-29,36 L-24,37 L-25,28 L-23,28 L-22,26 L-25,23 L-29,21 L-20,19 L-11,9 L-8,5 L-4,1 Z " fill="#DFDDD9" transform="translate(273,288)"/>
<path d="M0,0 L7,0 L9,3 L12,5 L10,9 L7,8 L6,11 L3,11 L5,15 L7,16 L5,21 L9,21 L8,18 L10,18 L11,25 L16,27 L14,29 L19,30 L22,30 L25,31 L24,33 L27,34 L24,35 L27,35 L26,30 L25,27 L32,26 L33,23 L36,23 L36,20 L42,18 L39,25 L33,28 L35,31 L33,32 L33,37 L29,37 L28,39 L33,41 L36,38 L37,36 L39,36 L39,39 L37,39 L35,46 L32,44 L29,45 L29,43 L25,41 L24,40 L22,42 L21,38 L20,32 L18,32 L18,38 L17,38 L16,32 L11,34 L11,36 L15,36 L15,44 L11,46 L12,48 L12,46 L15,46 L15,49 L18,49 L19,47 L22,48 L21,49 L22,53 L25,53 L24,55 L20,56 L19,55 L19,62 L16,62 L15,65 L20,65 L18,66 L20,74 L20,77 L17,80 L15,84 L14,80 L13,85 L18,84 L19,89 L24,86 L25,88 L29,90 L25,92 L22,91 L23,94 L30,92 L31,94 L28,95 L27,97 L26,98 L28,102 L27,106 L11,102 L5,101 L-12,100 L-15,99 L-27,101 L-34,101 L-31,99 L-35,100 L-36,103 L-44,101 L-44,96 L-41,95 L-38,95 L-38,92 L-40,89 L-40,91 L-44,92 L-44,87 L-44,84 L-44,83 L-43,80 L-40,80 L-40,82 L-37,82 L-37,79 L-35,79 L-35,77 L-27,77 L-27,75 L-32,75 L-32,70 L-34,70 L-35,72 L-35,70 L-39,69 L-40,71 L-42,66 L-38,64 L-37,60 L-40,61 L-40,58 L-38,56 L-30,56 L-29,54 L-24,55 L-21,56 L-22,54 L-20,54 L-20,52 L-24,54 L-26,52 L-25,49 L-28,49 L-29,52 L-32,49 L-34,53 L-35,51 L-38,50 L-39,47 L-37,47 L-37,43 L-38,39 L-33,39 L-29,42 L-33,44 L-30,44 L-28,43 L-28,40 L-26,40 L-26,43 L-24,42 L-24,39 L-27,38 L-27,36 L-29,36 L-30,39 L-34,38 L-35,32 L-32,33 L-31,36 L-26,35 L-26,37 L-24,37 L-24,35 L-20,35 L-23,33 L-22,31 L-18,31 L-19,28 L-18,27 L-21,24 L-21,20 L-18,20 L-16,19 L-14,20 L-14,18 L-13,17 L-13,11 L-11,11 L-10,9 L-6,10 L-3,3 L-9,3 L-10,5 L-15,6 L-16,8 L-18,8 L-17,12 L-20,14 L-22,12 L-21,11 L-29,10 L-40,15 L-44,14 L-24,6 L-8,1 Z M10,85 L8,87 L5,86 L5,89 L8,89 L9,93 L6,94 L3,93 L0,98 L1,99 L16,100 L16,98 L19,97 L16,95 L13,95 L13,92 L12,91 L14,87 Z M9,16 L11,16 L10,18 Z M-26,39 Z " fill="#ED586F" transform="translate(249,10)"/>
<path d="M0,0 L2,4 L2,17 L3,15 L5,15 L4,20 L7,19 L7,21 L11,21 L13,21 L15,23 L18,22 L18,20 L16,19 L18,16 L23,18 L24,14 L26,17 L31,17 L29,20 L32,22 L36,20 L40,22 L40,24 L44,26 L54,24 L54,26 L58,28 L59,28 L62,25 L67,28 L67,30 L69,30 L70,28 L71,35 L73,33 L76,49 L82,67 L88,79 L88,81 L86,82 L87,86 L85,87 L84,90 L79,86 L75,85 L75,87 L69,88 L66,86 L67,87 L66,90 L54,88 L55,84 L59,83 L59,85 L61,85 L60,82 L51,80 L50,85 L48,85 L47,80 L44,78 L41,78 L43,80 L41,83 L38,79 L37,83 L35,82 L33,82 L33,78 L32,80 L30,80 L30,78 L28,78 L27,80 L26,78 L23,80 L20,77 L20,74 L18,74 L19,78 L13,78 L12,82 L9,82 L6,76 L3,67 L0,49 L-1,38 L-1,12 Z M25,20 L28,22 L28,20 Z " fill="#956A9B" transform="translate(83,191)"/>
<path d="M0,0 L2,1 L-7,9 L-10,13 L-15,16 L-33,34 L-42,46 L-52,61 L-61,78 L-66,91 L-70,99 L-70,102 L-68,97 L-66,97 L-66,99 L-62,99 L-60,105 L-58,101 L-53,96 L-53,99 L-51,99 L-51,97 L-49,98 L-50,100 L-46,102 L-48,102 L-47,105 L-49,105 L-49,103 L-51,104 L-47,107 L-51,109 L-50,113 L-48,113 L-49,109 L-46,106 L-43,106 L-43,102 L-41,101 L-39,95 L-38,95 L-37,98 L-35,95 L-31,97 L-32,103 L-34,103 L-35,106 L-35,104 L-39,104 L-37,106 L-33,109 L-33,104 L-32,107 L-29,108 L-28,107 L-23,107 L-26,106 L-26,104 L-30,106 L-30,103 L-29,102 L-31,101 L-27,99 L-26,96 L-23,96 L-22,98 L-19,99 L-18,97 L-18,100 L-20,100 L-21,103 L-22,102 L-22,108 L-20,107 L-20,109 L-16,108 L-13,111 L-14,114 L-16,114 L-17,112 L-21,115 L-25,115 L-26,118 L-30,118 L-32,116 L-34,120 L-36,121 L-34,121 L-30,122 L-33,123 L-33,125 L-27,124 L-29,120 L-25,119 L-24,120 L-22,118 L-18,119 L-17,123 L-15,123 L-14,118 L-11,118 L-8,121 L-11,123 L-7,123 L-6,127 L-10,145 L-11,154 L-11,181 L-13,179 L-14,174 L-16,174 L-19,171 L-22,170 L-24,174 L-27,173 L-27,171 L-29,170 L-29,168 L-40,171 L-43,168 L-43,166 L-45,166 L-46,168 L-47,165 L-49,165 L-51,167 L-55,163 L-53,162 L-62,162 L-65,161 L-65,164 L-64,168 L-67,167 L-70,167 L-70,165 L-74,167 L-74,165 L-79,164 L-78,159 L-80,159 L-81,173 L-82,173 L-82,133 L-75,106 L-70,92 L-64,79 L-57,65 L-47,49 L-33,31 L-14,12 L-12,12 L-12,10 L-1,1 Z M-58,164 L-55,164 L-56,166 Z " fill="#C74F7B" transform="translate(166,47)"/>
<path d="M0,0 L5,0 L3,6 L5,7 L5,9 L8,8 L9,11 L11,7 L15,8 L16,13 L15,15 L18,14 L22,14 L25,13 L27,16 L29,16 L28,12 L31,13 L32,15 L35,15 L37,17 L36,19 L34,19 L34,21 L32,21 L34,23 L39,17 L40,20 L44,21 L43,24 L41,24 L41,29 L38,29 L39,34 L32,45 L25,55 L20,50 L20,46 L21,42 L17,42 L12,44 L8,48 L6,48 L5,50 L-2,48 L-4,41 L-8,42 L-10,41 L-11,44 L-15,43 L-15,41 L-17,41 L-17,43 L-20,42 L-19,40 L-22,40 L-23,42 L-25,39 L-26,41 L-34,40 L-36,42 L-41,38 L-43,37 L-42,35 L-49,34 L-51,32 L-53,34 L-56,34 L-56,32 L-58,32 L-58,30 L-60,30 L-59,34 L-61,34 L-63,30 L-65,26 L-65,30 L-69,32 L-68,28 L-72,29 L-76,28 L-77,30 L-78,27 L-80,26 L-80,31 L-86,29 L-81,25 L-77,22 L-75,22 L-74,19 L-71,16 L-66,11 L-60,6 L-58,6 L-58,4 L-50,4 L-49,5 L-47,1 L-45,1 L-45,4 L-39,3 L-38,5 L-38,8 L-34,7 L-33,8 L-31,6 L-29,7 L-28,5 L-25,8 L-19,5 L-18,8 L-16,8 L-14,6 L-14,9 L-11,9 L-12,4 L-9,2 L-8,7 L-6,7 L-8,6 L-8,2 L0,3 Z " fill="#39B9AB" transform="translate(422,341)"/>
<path d="M0,0 L5,0 L21,11 L26,15 L20,17 L19,19 L24,20 L26,26 L22,27 L19,24 L22,24 L17,21 L13,24 L13,20 L16,20 L16,18 L11,19 L10,22 L8,23 L12,23 L11,25 L2,26 L-2,28 L-4,26 L-4,28 L-7,29 L-9,28 L-8,30 L-5,32 L-7,32 L-8,35 L-13,34 L-18,30 L-20,30 L-20,27 L-24,27 L-24,25 L-29,27 L-32,31 L-34,30 L-34,32 L-37,35 L-35,36 L-37,40 L-41,38 L-45,34 L-44,32 L-43,31 L-46,31 L-46,35 L-42,37 L-40,39 L-38,41 L-36,43 L-36,46 L-37,48 L-39,49 L-39,47 L-41,46 L-44,45 L-45,47 L-47,47 L-45,49 L-40,48 L-40,51 L-46,52 L-45,55 L-50,56 L-51,62 L-53,61 L-57,66 L-58,69 L-61,70 L-65,78 L-62,79 L-61,83 L-58,84 L-52,92 L-52,95 L-49,96 L-49,98 L-46,99 L-47,101 L-44,101 L-43,105 L-41,106 L-40,109 L-39,105 L-37,105 L-37,107 L-33,106 L-34,100 L-31,101 L-31,103 L-29,104 L-31,107 L-28,107 L-27,104 L-24,104 L-23,101 L-22,106 L-25,109 L-22,110 L-23,114 L-25,114 L-27,118 L-26,123 L-24,123 L-25,125 L-24,126 L-25,132 L-30,127 L-41,112 L-50,100 L-62,84 L-78,63 L-88,49 L-92,43 L-94,36 L-92,30 L-86,29 L-83,30 L-82,28 L-79,28 L-78,29 L-77,25 L-73,26 L-73,27 L-69,27 L-70,24 L-66,19 L-64,18 L-64,12 L-60,14 L-57,17 L-55,17 L-53,19 L-51,18 L-51,15 L-49,15 L-47,18 L-47,17 L-50,13 L-46,11 L-46,14 L-42,15 L-41,12 L-38,12 L-35,16 L-32,15 L-29,14 L-28,14 L-27,12 L-23,13 L-20,12 L-19,14 L-16,12 L-14,11 L-13,9 L-10,11 L-10,13 L-7,13 L-6,11 L-7,10 L-7,7 L-3,7 L-1,7 L2,10 L2,8 L7,5 L2,4 Z " fill="#14A7B4" transform="translate(250,361)"/>
<path d="M0,0 L1,4 L7,5 L10,6 L9,13 L0,39 L-2,41 L-2,38 L-7,39 L-13,40 L-17,41 L-18,38 L-24,38 L-27,38 L-28,39 L-30,41 L-35,40 L-34,43 L-38,42 L-39,44 L-39,42 L-42,43 L-44,43 L-46,45 L-51,43 L-55,46 L-57,47 L-58,49 L-61,49 L-65,48 L-67,48 L-72,49 L-74,51 L-74,48 L-76,48 L-76,50 L-80,51 L-82,52 L-82,50 L-85,50 L-85,52 L-88,52 L-88,49 L-91,51 L-95,51 L-99,52 L-98,47 L-96,43 L-90,35 L-79,20 L-77,16 L-73,15 L-70,16 L-69,13 L-65,16 L-62,13 L-58,12 L-57,15 L-55,15 L-53,13 L-50,13 L-50,11 L-46,11 L-42,10 L-42,14 L-40,14 L-39,15 L-36,10 L-30,11 L-31,10 L-30,8 L-28,9 L-28,11 L-26,11 L-26,9 L-23,8 L-17,9 L-16,4 L-9,6 L-4,8 L-3,10 L-3,7 L-5,6 L-2,6 L-2,4 L0,4 Z " fill="#73AA95" transform="translate(499,264)"/>
<path d="M0,0 L2,1 L5,2 L9,7 L9,11 L12,12 L11,15 L7,13 L5,16 L10,16 L8,18 L4,19 L2,13 L-1,14 L-3,13 L-2,16 L2,16 L1,20 L-1,20 L0,24 L2,23 L2,26 L5,26 L5,28 L-1,27 L0,28 L1,30 L0,33 L-3,34 L-5,36 L-7,35 L-8,38 L-2,37 L-1,35 L1,33 L4,33 L3,37 L6,41 L7,46 L1,45 L0,45 L-1,49 L-2,47 L-7,49 L-10,48 L-10,46 L-17,50 L-20,48 L-22,48 L-25,48 L-24,49 L-15,50 L-14,52 L-11,53 L-20,53 L-21,53 L-18,57 L-23,56 L-24,58 L-22,64 L-23,70 L-25,70 L-26,75 L-30,74 L-30,76 L-28,77 L-29,82 L-26,81 L-26,83 L-28,83 L-28,85 L-26,86 L-26,88 L-23,89 L-23,84 L-20,84 L-20,87 L-20,90 L-29,94 L-33,92 L-35,97 L-37,94 L-41,102 L-45,105 L-44,107 L-46,107 L-46,109 L-48,109 L-50,104 L-48,102 L-50,99 L-47,99 L-46,98 L-49,93 L-49,95 L-52,94 L-54,98 L-55,99 L-57,100 L-58,103 L-58,101 L-60,100 L-61,96 L-65,95 L-64,93 L-66,93 L-67,98 L-69,100 L-69,95 L-64,85 L-60,74 L-51,57 L-41,42 L-30,28 L-11,9 L-7,7 L-2,1 Z M2,39 L3,41 Z M-26,61 L-25,63 L-24,61 Z M-23,59 L-19,61 L-21,63 Z " fill="#D6486C" transform="translate(164,51)"/>
<path d="M0,0 L3,1 L3,4 L8,3 L10,6 L9,7 L13,10 L18,5 L22,5 L24,7 L26,6 L25,11 L26,10 L28,10 L29,8 L30,10 L32,11 L34,12 L33,9 L36,6 L36,9 L41,8 L45,9 L46,12 L49,13 L52,16 L54,16 L56,21 L60,22 L59,20 L59,17 L65,17 L64,19 L66,21 L66,18 L69,15 L74,17 L73,19 L71,19 L69,26 L72,25 L72,27 L69,27 L70,32 L67,32 L73,34 L71,35 L74,41 L74,43 L77,42 L77,48 L76,46 L66,45 L66,47 L68,48 L69,55 L72,57 L72,55 L79,55 L80,57 L66,76 L52,94 L40,111 L29,126 L20,139 L19,136 L17,135 L21,135 L20,130 L23,130 L23,127 L18,127 L20,123 L16,124 L15,121 L19,120 L22,120 L28,118 L29,119 L31,117 L32,113 L35,110 L33,109 L33,105 L31,98 L29,97 L28,100 L25,99 L25,93 L27,93 L27,96 L30,93 L37,92 L36,97 L38,98 L39,97 L39,95 L41,95 L40,92 L41,91 L37,88 L36,91 L34,91 L36,85 L41,85 L44,87 L49,84 L53,86 L55,87 L53,79 L50,80 L49,76 L52,75 L49,75 L50,73 L48,71 L54,70 L54,73 L57,72 L57,75 L58,74 L59,71 L61,69 L58,69 L59,64 L59,61 L61,60 L63,61 L62,57 L66,58 L66,54 L63,54 L63,56 L60,57 L59,55 L62,55 L60,50 L56,52 L55,54 L57,54 L58,52 L57,56 L53,55 L51,52 L51,55 L53,57 L46,58 L46,54 L44,53 L40,49 L38,48 L39,52 L42,52 L41,55 L36,54 L35,50 L31,46 L31,44 L33,44 L30,40 L29,36 L29,33 L24,34 L25,30 L23,30 L23,36 L21,35 L20,27 L18,23 L16,20 L15,23 L11,22 L12,19 L8,19 L8,21 L6,21 L5,18 L3,18 L1,20 L1,16 L5,15 L5,12 L7,12 L7,10 L5,11 L3,15 L1,15 L-1,13 L-4,13 L0,10 L0,6 L2,5 Z M70,16 Z M54,80 Z " fill="#20BDB4" transform="translate(336,381)"/>
<path d="M0,0 L2,0 L4,4 L7,4 L10,4 L12,4 L13,5 L16,5 L19,8 L20,4 L23,8 L24,6 L22,4 L26,3 L31,7 L30,11 L32,11 L32,5 L36,5 L43,8 L43,11 L41,11 L41,9 L37,10 L37,13 L41,14 L47,14 L46,13 L45,11 L52,12 L53,13 L57,13 L57,11 L62,12 L66,14 L67,11 L69,12 L68,9 L66,7 L71,7 L80,22 L83,29 L84,31 L75,30 L74,33 L70,36 L68,35 L67,37 L65,37 L63,40 L61,39 L60,36 L54,38 L49,40 L48,37 L44,37 L44,39 L35,38 L34,40 L29,39 L28,43 L26,42 L27,39 L24,38 L24,36 L20,37 L17,40 L18,43 L22,42 L23,44 L19,45 L17,44 L13,48 L14,43 L9,41 L7,42 L7,40 L2,39 L0,41 L-8,19 L-12,5 L-11,2 L-9,5 L-9,8 L-6,7 L-5,4 L1,4 Z M4,37 Z M4,40 Z " fill="#7377A1" transform="translate(101,265)"/>
<path d="M0,0 L1,0 L3,16 L3,46 L0,65 L-4,83 L-5,83 L-4,74 L-1,59 L-1,47 L-5,45 L-5,47 L-8,48 L-13,46 L-14,52 L-18,51 L-21,51 L-23,51 L-22,56 L-24,56 L-26,54 L-28,55 L-30,53 L-39,51 L-40,54 L-41,51 L-43,51 L-44,54 L-46,56 L-49,54 L-47,54 L-47,52 L-52,54 L-55,50 L-57,51 L-58,49 L-60,50 L-62,53 L-66,49 L-67,51 L-67,49 L-69,49 L-69,47 L-71,47 L-70,33 L-69,33 L-67,18 L-64,17 L-64,19 L-62,20 L-60,19 L-55,21 L-51,20 L-48,21 L-44,21 L-44,23 L-37,22 L-36,20 L-36,24 L-34,21 L-30,21 L-30,24 L-28,24 L-28,27 L-24,25 L-20,19 L-19,21 L-18,19 L-17,18 L-18,13 L-13,14 L-9,14 L-7,13 L-5,15 L-5,13 L-1,12 L0,16 Z " fill="#C98E78" transform="translate(514,187)"/>
<path d="M0,0 L2,2 L2,0 L10,1 L15,3 L25,12 L31,17 L29,18 L29,21 L25,19 L21,21 L21,19 L16,20 L15,20 L15,23 L10,24 L8,23 L7,25 L5,25 L4,27 L4,25 L2,25 L1,31 L-1,31 L-5,26 L-7,27 L-9,23 L-13,22 L-11,22 L-11,20 L-17,22 L-17,25 L-20,25 L-20,27 L-18,27 L-17,31 L-24,32 L-25,32 L-28,32 L-28,30 L-31,30 L-33,28 L-37,29 L-39,31 L-40,32 L-42,35 L-42,33 L-45,33 L-44,36 L-48,36 L-48,33 L-50,33 L-50,38 L-51,40 L-54,39 L-55,37 L-57,39 L-58,37 L-63,38 L-63,41 L-62,45 L-64,47 L-77,25 L-79,22 L-79,15 L-77,15 L-78,12 L-76,12 L-76,14 L-65,14 L-65,16 L-63,16 L-64,12 L-60,13 L-59,11 L-54,9 L-51,9 L-50,11 L-48,11 L-47,9 L-47,12 L-44,9 L-40,8 L-37,8 L-37,10 L-30,10 L-32,9 L-32,6 L-28,7 L-24,6 L-21,5 L-17,6 L-16,4 L-14,3 L-9,4 L-7,3 L-3,5 L-4,1 Z " fill="#458DAB" transform="translate(199,324)"/>
<path d="M0,0 L3,3 L8,3 L6,6 L9,8 L13,6 L17,8 L17,10 L21,12 L31,10 L31,12 L35,14 L36,14 L39,11 L44,14 L44,16 L46,16 L47,14 L48,21 L50,19 L52,31 L52,38 L50,38 L48,34 L46,38 L42,35 L37,36 L33,38 L30,35 L30,33 L26,34 L29,34 L31,38 L31,41 L26,41 L27,39 L25,39 L24,41 L22,40 L22,42 L19,42 L19,40 L15,39 L10,42 L5,47 L-2,44 L-5,44 L-7,44 L-7,42 L-9,43 L-9,46 L-11,45 L-12,44 L-14,44 L-15,42 L-16,46 L-17,51 L-19,47 L-20,33 L-19,30 L-16,30 L-15,28 L-19,29 L-21,25 L-21,18 L-19,12 L-17,10 L-13,13 L-13,16 L-9,13 L-7,14 L-6,21 L-3,22 L-3,17 L-6,15 L-1,15 L-5,12 L-5,6 L-7,5 L-5,2 L0,4 Z M2,6 L5,8 L5,6 Z M-16,16 L-17,18 L-12,18 L-13,16 Z " fill="#A06093" transform="translate(106,205)"/>
<path d="M0,0 L2,2 L7,18 L11,36 L12,47 L12,65 L11,65 L9,55 L7,56 L4,56 L2,56 L-2,56 L-4,56 L-4,54 L-7,54 L-5,58 L-5,61 L-9,61 L-13,67 L-19,69 L-17,65 L-19,65 L-19,62 L-24,65 L-26,67 L-26,63 L-33,64 L-34,62 L-40,64 L-41,62 L-45,63 L-49,61 L-52,63 L-53,60 L-55,61 L-57,77 L-58,77 L-59,49 L-57,43 L-51,41 L-48,44 L-43,44 L-44,38 L-39,33 L-38,36 L-25,38 L-22,37 L-19,29 L-16,25 L-11,32 L-8,30 L-8,32 L-6,32 L-6,29 L-12,29 L-13,23 L-12,25 L-6,22 L-2,21 L-2,23 L0,19 L2,19 L3,23 L3,19 L5,19 L0,3 Z " fill="#D98772" transform="translate(503,146)"/>
<path d="M0,0 L3,2 L5,1 L10,2 L11,4 L15,3 L17,1 L17,3 L26,2 L25,7 L23,9 L21,11 L19,14 L18,13 L16,19 L13,16 L13,17 L13,20 L10,21 L7,20 L6,23 L-1,25 L-3,23 L-3,26 L-8,27 L-11,27 L-15,23 L-14,28 L-17,28 L-24,29 L-27,29 L-34,31 L-36,30 L-36,32 L-38,32 L-39,34 L-39,32 L-48,32 L-49,33 L-53,34 L-54,32 L-58,33 L-61,33 L-67,35 L-70,32 L-72,32 L-73,34 L-81,35 L-80,32 L-82,32 L-83,34 L-90,33 L-86,28 L-84,28 L-83,23 L-75,15 L-68,7 L-68,10 L-71,16 L-67,15 L-66,13 L-62,14 L-59,12 L-60,16 L-57,16 L-58,12 L-53,15 L-50,13 L-48,14 L-48,12 L-43,12 L-38,10 L-35,11 L-35,12 L-31,11 L-30,10 L-25,8 L-22,6 L-18,8 L-14,5 L-10,6 L-7,6 L-7,4 L-3,3 L-1,3 Z " fill="#64AD9A" transform="translate(471,300)"/>
<path d="M0,0 L7,0 L12,5 L12,13 L1,26 L-5,29 L-12,31 L-15,38 L-13,38 L-13,36 L-11,36 L-10,40 L-6,37 L-1,39 L-3,40 L-3,42 L0,43 L-2,45 L-6,44 L-7,42 L-9,42 L-10,44 L-11,40 L-16,39 L-16,42 L-13,42 L-10,45 L-9,47 L-6,48 L-14,50 L-13,52 L-8,49 L-6,49 L-6,53 L-8,55 L-5,58 L-4,57 L-4,55 L-1,52 L0,50 L4,52 L5,54 L1,55 L1,60 L3,58 L6,62 L2,63 L-2,64 L-5,64 L-5,66 L-7,68 L-2,69 L-2,70 L-10,71 L-11,68 L-9,64 L-13,61 L-12,58 L-14,56 L-17,57 L-20,54 L-20,52 L-22,52 L-23,50 L-25,54 L-21,53 L-21,56 L-24,56 L-25,59 L-31,58 L-45,46 L-55,37 L-58,34 L-57,30 L-55,30 L-53,36 L-49,38 L-46,37 L-47,35 L-51,37 L-48,32 L-50,32 L-50,34 L-53,33 L-53,30 L-50,29 L-50,26 L-45,27 L-45,24 L-47,23 L-45,22 L-44,18 L-43,20 L-42,18 L-39,19 L-37,23 L-40,23 L-35,24 L-39,26 L-41,26 L-41,28 L-33,26 L-34,29 L-32,30 L-32,32 L-27,33 L-26,31 L-30,30 L-31,28 L-26,29 L-27,20 L-25,20 L-24,18 L-27,15 L-31,13 L-21,11 L-20,14 L-17,14 L-18,22 L-22,23 L-18,23 L-16,23 L-16,17 L-9,8 L-2,1 Z M-21,14 L-20,18 L-19,16 Z " fill="#DCDAD6" transform="translate(275,296)"/>
<path d="M0,0 L8,0 L13,5 L14,7 L14,15 L16,15 L17,20 L15,23 L22,16 L24,15 L31,15 L36,20 L37,21 L36,28 L28,38 L23,43 L24,46 L26,48 L20,49 L22,56 L21,58 L17,58 L21,60 L20,63 L13,60 L12,57 L10,57 L6,57 L6,55 L10,54 L6,52 L9,51 L6,48 L3,48 L2,51 L4,52 L2,53 L3,57 L-3,56 L-2,59 L-4,60 L-6,59 L-6,61 L-4,62 L-3,61 L-1,61 L-2,65 L1,63 L2,67 L-4,68 L-8,64 L-8,59 L-11,62 L-15,60 L-15,58 L-17,57 L-14,57 L-11,54 L-8,54 L-7,51 L-11,51 L-10,47 L-13,47 L-14,43 L-11,42 L-11,44 L-7,42 L-10,40 L-5,41 L-4,45 L-2,45 L-1,43 L2,43 L2,41 L-2,42 L-3,36 L0,35 L-1,33 L2,26 L-5,26 L-11,21 L-12,13 L-8,7 Z " fill="#DEDCD7" transform="translate(228,267)"/>
<path d="M0,0 L24,0 L51,3 L62,5 L78,9 L102,18 L121,28 L119,29 L96,18 L90,19 L87,23 L82,21 L81,16 L82,14 L89,16 L88,15 L69,9 L44,4 L34,3 L18,3 L18,6 L18,8 L23,9 L28,9 L26,14 L24,11 L24,14 L20,15 L17,14 L17,17 L15,16 L16,14 L14,14 L14,18 L8,20 L4,20 L5,23 L9,22 L8,27 L4,28 L8,29 L5,29 L5,31 L2,31 L4,35 L6,39 L5,46 L1,44 L1,42 L-1,42 L-3,47 L-8,48 L-8,46 L-11,45 L-12,43 L-9,43 L-8,41 L-5,43 L-6,38 L-4,36 L-6,34 L-2,31 L1,31 L3,25 L-2,26 L-1,29 L-4,31 L-5,30 L-6,32 L-13,33 L-10,38 L-11,42 L-13,42 L-14,44 L-14,41 L-12,40 L-14,39 L-14,37 L-16,36 L-17,38 L-22,36 L-26,34 L-23,33 L-28,31 L-28,24 L-29,27 L-32,27 L-33,30 L-34,26 L-31,22 L-35,20 L-34,18 L-36,17 L-34,16 L-32,17 L-31,13 L-28,15 L-27,11 L-31,10 L-31,6 L-42,7 L-39,5 L-13,1 Z M-29,22 L-27,24 L-27,22 Z " fill="#F05F6E" transform="translate(287,4)"/>
<path d="M0,0 L3,0 L7,2 L15,1 L16,4 L20,4 L21,6 L23,3 L23,5 L27,4 L30,7 L34,8 L35,7 L30,6 L34,4 L35,1 L48,1 L51,4 L52,4 L53,1 L54,4 L56,4 L58,9 L58,39 L56,37 L55,32 L53,32 L50,29 L47,28 L45,32 L42,31 L42,29 L40,28 L40,26 L29,29 L26,26 L26,24 L24,24 L23,26 L22,23 L20,23 L18,25 L14,21 L16,20 L7,20 L4,19 L4,22 L5,26 L2,25 L-1,25 L-1,23 L-5,25 L-5,23 L-10,22 L-9,17 L-11,17 L-12,31 L-13,31 L-13,13 L-11,13 L-11,6 L-9,3 L-6,2 L-6,4 L-2,6 L0,5 L-1,2 Z M11,22 L14,22 L13,24 Z " fill="#BA5887" transform="translate(97,189)"/>
<path d="M0,0 L7,1 L7,3 L11,0 L14,2 L15,3 L15,0 L19,1 L35,14 L32,14 L26,12 L23,14 L18,11 L17,13 L12,13 L12,15 L4,16 L2,19 L2,15 L-1,17 L-5,22 L-12,25 L-16,25 L-16,22 L-18,22 L-18,20 L-26,20 L-31,18 L-32,21 L-34,20 L-35,22 L-35,24 L-39,25 L-40,27 L-41,24 L-47,24 L-49,26 L-50,28 L-53,26 L-54,28 L-58,30 L-61,31 L-63,30 L-63,28 L-70,30 L-70,32 L-72,32 L-70,36 L-60,40 L-61,49 L-57,53 L-56,59 L-54,60 L-57,60 L-73,36 L-77,30 L-78,23 L-78,20 L-74,18 L-70,19 L-67,19 L-66,20 L-64,15 L-60,15 L-60,18 L-59,15 L-55,14 L-56,12 L-52,11 L-50,9 L-45,9 L-45,12 L-42,12 L-42,14 L-39,14 L-39,12 L-37,13 L-36,14 L-35,10 L-35,13 L-32,12 L-32,9 L-34,9 L-34,7 L-32,6 L-33,1 L-29,3 L-25,2 L-24,4 L-18,8 L-18,10 L-15,11 L-14,10 L-12,7 L-7,7 L-6,4 L-4,5 L-2,3 L-2,5 L0,4 L0,1 Z " fill="#3097AF" transform="translate(213,342)"/>
<path d="M0,0 L1,4 L7,5 L10,6 L9,13 L1,36 L-1,33 L0,26 L-1,22 L-5,22 L-7,22 L-10,22 L-14,24 L-19,23 L-24,24 L-24,22 L-32,26 L-32,24 L-35,26 L-36,28 L-43,26 L-46,28 L-53,30 L-54,28 L-56,31 L-58,31 L-59,29 L-64,31 L-65,28 L-68,32 L-69,30 L-72,33 L-75,34 L-79,32 L-82,32 L-83,34 L-85,33 L-85,28 L-78,18 L-77,16 L-73,15 L-70,16 L-69,13 L-65,16 L-62,13 L-58,12 L-57,15 L-55,15 L-53,13 L-50,13 L-50,11 L-46,11 L-42,10 L-42,14 L-40,14 L-39,15 L-36,10 L-30,11 L-31,10 L-30,8 L-28,9 L-28,11 L-26,11 L-26,9 L-23,8 L-17,9 L-16,4 L-9,6 L-4,8 L-3,10 L-3,7 L-5,6 L-2,6 L-2,4 L0,4 Z " fill="#8AA28D" transform="translate(499,264)"/>
<path d="M0,0 L2,0 L4,4 L7,4 L10,4 L12,4 L13,5 L16,5 L19,8 L20,4 L23,8 L24,6 L22,4 L26,3 L31,7 L30,11 L32,11 L32,5 L36,5 L43,8 L43,11 L41,11 L41,9 L37,10 L37,13 L41,14 L47,14 L46,13 L45,11 L52,12 L53,13 L57,13 L57,11 L62,12 L66,14 L67,11 L69,12 L68,9 L66,7 L71,7 L75,15 L77,20 L79,25 L74,23 L72,25 L62,23 L62,21 L58,22 L61,24 L62,27 L58,26 L55,26 L52,26 L51,23 L50,27 L45,24 L43,24 L44,28 L41,27 L38,24 L37,28 L32,26 L30,27 L30,25 L26,24 L26,22 L23,22 L21,18 L22,19 L18,21 L15,24 L16,19 L13,19 L14,21 L11,24 L7,24 L7,26 L2,27 L1,24 L5,25 L4,20 L-1,20 L-4,20 L-5,11 L-4,7 L-3,4 L1,4 Z M68,21 Z " fill="#82709E" transform="translate(101,265)"/>
<path d="M0,0 L1,3 L-12,31 L-23,51 L-34,69 L-36,65 L-33,65 L-33,60 L-30,57 L-35,57 L-35,54 L-37,60 L-39,59 L-40,62 L-42,57 L-40,57 L-39,52 L-40,49 L-42,49 L-41,46 L-37,48 L-37,50 L-35,50 L-36,45 L-34,46 L-34,48 L-32,48 L-33,45 L-32,41 L-33,39 L-28,38 L-23,39 L-26,40 L-25,42 L-21,41 L-21,38 L-28,35 L-25,30 L-21,29 L-18,34 L-14,26 L-10,24 L-12,21 L-17,22 L-16,23 L-17,26 L-18,26 L-20,28 L-22,28 L-22,25 L-23,29 L-26,28 L-27,24 L-29,27 L-31,25 L-32,27 L-30,27 L-30,29 L-34,27 L-38,28 L-42,30 L-45,30 L-45,28 L-48,27 L-49,32 L-50,29 L-52,29 L-52,32 L-55,31 L-58,32 L-61,35 L-67,34 L-68,36 L-69,31 L-74,32 L-70,32 L-71,34 L-74,34 L-77,37 L-81,34 L-83,34 L-83,32 L-85,32 L-84,35 L-89,35 L-90,39 L-92,39 L-96,35 L-106,32 L-106,30 L-104,30 L-103,27 L-98,29 L-96,25 L-92,28 L-91,29 L-91,28 L-83,26 L-82,27 L-80,25 L-77,27 L-78,29 L-76,27 L-72,25 L-70,26 L-61,27 L-61,25 L-56,24 L-52,23 L-50,24 L-48,21 L-47,23 L-42,22 L-40,22 L-41,18 L-38,18 L-34,22 L-31,20 L-29,19 L-29,17 L-25,19 L-19,17 L-18,15 L-14,14 L-14,13 L-12,9 L-9,12 L-8,7 L-4,5 L-4,3 L-1,2 Z " fill="#51B4A3" transform="translate(496,305)"/>
<path d="M0,0 L8,0 L13,5 L13,12 L12,19 L14,20 L13,21 L17,23 L17,16 L19,16 L19,23 L25,24 L22,27 L23,30 L21,33 L18,32 L19,30 L17,30 L17,35 L22,34 L22,36 L29,37 L29,40 L26,40 L26,38 L23,39 L19,36 L20,40 L20,42 L29,42 L27,45 L20,45 L22,46 L21,49 L17,50 L15,49 L15,54 L25,55 L24,51 L23,48 L27,49 L28,54 L27,56 L25,56 L25,58 L28,58 L27,61 L29,62 L29,58 L33,58 L34,55 L35,58 L37,60 L30,64 L22,65 L22,60 L20,59 L19,61 L21,62 L17,64 L13,63 L11,62 L10,64 L9,59 L6,58 L7,55 L12,57 L12,54 L9,55 L7,54 L8,48 L7,47 L6,52 L5,49 L3,49 L3,45 L1,44 L2,41 L6,40 L7,44 L11,44 L10,40 L9,35 L11,30 L13,28 L11,28 L9,30 L10,23 L11,18 L6,21 L1,25 L-1,26 L-7,26 L-12,22 L-13,15 L-5,5 Z " fill="#DEDBD7" transform="translate(294,312)"/>
<path d="M0,0 L6,5 L11,10 L11,12 L13,13 L9,14 L9,12 L5,13 L1,11 L2,15 L-2,13 L-4,13 L-4,16 L-9,15 L-11,16 L-15,15 L-17,17 L-21,18 L-25,18 L-30,20 L-30,18 L-33,17 L-33,20 L-30,21 L-33,22 L-40,21 L-42,20 L-46,22 L-49,22 L-52,23 L-54,20 L-56,22 L-60,22 L-61,25 L-62,23 L-65,23 L-64,27 L-66,27 L-66,25 L-73,26 L-77,25 L-77,23 L-82,23 L-85,19 L-86,15 L-82,13 L-79,14 L-78,12 L-78,14 L-72,12 L-72,14 L-69,13 L-68,14 L-65,9 L-64,7 L-61,8 L-61,12 L-58,11 L-56,9 L-56,11 L-52,12 L-50,13 L-50,11 L-48,11 L-47,7 L-47,11 L-45,6 L-41,9 L-38,7 L-33,6 L-32,3 L-30,3 L-28,9 L-24,3 L-19,4 L-16,4 L-13,5 L-7,3 L-5,1 L-5,3 L1,5 Z M-81,20 Z " fill="#4E85A8" transform="translate(200,313)"/>
<path d="M0,0 L1,0 L3,16 L3,46 L0,65 L-4,83 L-5,83 L-4,74 L-1,59 L-1,47 L-5,45 L-5,47 L-8,48 L-13,46 L-14,52 L-18,51 L-21,51 L-23,51 L-22,56 L-24,56 L-26,54 L-28,55 L-30,53 L-39,51 L-40,54 L-41,51 L-43,51 L-44,54 L-46,56 L-49,54 L-47,54 L-47,52 L-52,54 L-55,50 L-57,51 L-58,49 L-62,50 L-63,47 L-70,46 L-69,42 L-62,42 L-62,46 L-60,42 L-57,43 L-57,46 L-56,44 L-54,44 L-53,42 L-48,46 L-44,45 L-40,43 L-36,42 L-33,43 L-34,38 L-32,38 L-32,36 L-29,36 L-28,40 L-31,40 L-30,42 L-26,42 L-25,35 L-22,36 L-20,38 L-19,33 L-18,33 L-18,42 L-16,43 L-17,39 L-14,39 L-14,34 L-10,33 L-7,35 L-7,37 L-11,36 L-8,40 L-8,38 L-5,36 L-4,31 L-2,32 L-2,30 L0,30 L0,27 L-8,26 L-10,27 L-12,27 L-16,29 L-19,26 L-20,25 L-22,25 L-22,27 L-24,28 L-25,31 L-28,28 L-25,25 L-21,20 L-19,19 L-18,20 L-16,18 L-18,17 L-18,13 L-13,14 L-9,14 L-7,13 L-5,15 L-5,13 L-1,12 L0,16 Z " fill="#C2957D" transform="translate(514,187)"/>
<path d="M0,0 L1,0 L0,10 L-2,19 L-5,19 L-14,17 L-15,23 L-19,21 L-27,18 L-29,22 L-38,22 L-38,24 L-40,24 L-40,22 L-41,23 L-42,25 L-47,24 L-50,28 L-52,29 L-52,27 L-54,27 L-56,24 L-58,24 L-59,26 L-62,24 L-62,26 L-64,26 L-65,28 L-69,29 L-70,26 L-72,25 L-73,27 L-78,30 L-78,28 L-81,27 L-81,30 L-88,29 L-83,19 L-79,11 L-74,14 L-73,11 L-73,14 L-69,14 L-68,17 L-66,18 L-65,15 L-65,17 L-61,18 L-59,17 L-59,19 L-57,19 L-58,16 L-56,15 L-53,18 L-54,14 L-55,10 L-52,11 L-50,15 L-49,10 L-48,12 L-43,13 L-44,11 L-38,11 L-37,12 L-27,10 L-23,9 L-23,6 L-18,6 L-18,4 L-13,4 L-9,2 L-4,3 L0,4 Z " fill="#A39D86" transform="translate(511,251)"/>
<path d="M0,0 L3,3 L8,3 L6,6 L9,8 L13,6 L17,8 L17,10 L21,12 L31,10 L31,12 L35,14 L36,14 L39,11 L44,14 L44,16 L46,16 L47,14 L48,21 L50,19 L50,31 L45,28 L45,30 L40,29 L39,32 L37,31 L37,29 L32,29 L32,26 L27,25 L22,27 L23,29 L19,29 L15,31 L13,35 L11,35 L11,33 L9,33 L9,30 L3,30 L2,27 L0,27 L-2,29 L-3,24 L1,22 L-3,20 L-3,17 L-6,15 L-1,15 L-5,12 L-5,6 L-7,5 L-5,2 L0,4 Z M2,6 L5,8 L5,6 Z M2,30 Z " fill="#AC5A8C" transform="translate(106,205)"/>
<path d="M0,0 L2,2 L3,0 L8,2 L9,5 L9,8 L6,9 L3,8 L2,11 L-5,13 L-7,11 L-7,14 L-12,15 L-15,15 L-19,11 L-18,16 L-21,16 L-28,17 L-31,17 L-38,19 L-40,18 L-40,20 L-42,20 L-43,22 L-43,20 L-52,20 L-53,21 L-57,22 L-58,20 L-62,21 L-65,21 L-71,23 L-74,20 L-76,20 L-77,22 L-85,23 L-84,20 L-86,20 L-87,22 L-94,21 L-90,16 L-88,16 L-87,11 L-81,6 L-80,10 L-79,12 L-77,10 L-75,12 L-73,12 L-71,9 L-68,10 L-64,8 L-61,8 L-61,11 L-58,8 L-56,8 L-54,12 L-50,10 L-49,8 L-44,8 L-39,7 L-37,9 L-35,5 L-31,6 L-27,5 L-24,6 L-20,6 L-20,4 L-4,4 L-4,1 Z " fill="#59B19E" transform="translate(475,312)"/>
<path d="M0,0 L5,5 L16,19 L19,24 L16,23 L12,18 L12,16 L10,16 L9,19 L7,19 L6,21 L-1,20 L-1,18 L-6,19 L-8,17 L-11,18 L-19,17 L-20,20 L-24,19 L-32,22 L-34,22 L-35,24 L-35,22 L-40,23 L-41,25 L-49,30 L-51,30 L-50,34 L-53,33 L-53,29 L-56,33 L-61,32 L-63,30 L-65,31 L-67,29 L-70,29 L-72,28 L-71,35 L-74,31 L-79,19 L-78,14 L-73,16 L-72,17 L-70,15 L-70,18 L-66,19 L-66,23 L-64,18 L-63,20 L-59,19 L-62,19 L-62,17 L-66,16 L-61,13 L-58,11 L-53,15 L-52,19 L-51,13 L-46,16 L-45,13 L-42,14 L-40,12 L-38,14 L-36,15 L-36,13 L-32,12 L-31,16 L-30,14 L-23,12 L-19,11 L-17,16 L-15,11 L-12,11 L-8,10 L-5,6 L1,5 L2,5 Z M-76,16 L-75,18 Z M-76,13 Z " fill="#677EA5" transform="translate(181,289)"/>
<path d="M0,0 L8,6 L15,13 L18,16 L16,16 L16,19 L12,17 L8,19 L8,17 L3,18 L2,18 L2,21 L-3,22 L-5,21 L-6,23 L-8,23 L-9,25 L-9,23 L-11,23 L-12,29 L-14,29 L-18,24 L-20,25 L-22,21 L-26,20 L-24,20 L-24,18 L-30,20 L-30,23 L-33,23 L-33,25 L-31,25 L-30,29 L-37,30 L-38,30 L-41,30 L-41,28 L-44,28 L-46,26 L-50,27 L-52,29 L-53,30 L-55,33 L-55,31 L-58,31 L-57,34 L-61,34 L-61,31 L-63,31 L-63,36 L-64,38 L-67,37 L-68,35 L-70,37 L-71,35 L-76,36 L-80,36 L-78,35 L-77,31 L-74,30 L-72,31 L-71,29 L-69,29 L-68,26 L-69,22 L-61,23 L-64,21 L-60,18 L-53,20 L-52,18 L-44,18 L-43,17 L-38,17 L-36,15 L-30,16 L-29,14 L-27,14 L-27,16 L-23,13 L-21,15 L-21,13 L-16,13 L-13,12 L-12,9 L-7,11 L-3,9 L1,9 L1,6 L-1,6 L-1,8 L-3,8 L-2,3 L0,3 Z " fill="#3B92AD" transform="translate(212,326)"/>
<path d="M0,0 L3,1 L2,6 L3,14 L5,14 L7,19 L14,20 L17,22 L18,20 L18,22 L20,22 L19,16 L20,13 L21,15 L24,16 L23,18 L21,17 L21,19 L26,20 L26,22 L24,24 L24,27 L21,27 L22,29 L27,31 L27,33 L33,31 L30,29 L30,26 L34,27 L33,28 L37,30 L38,32 L41,33 L39,27 L35,26 L39,24 L39,22 L35,21 L38,18 L30,18 L30,15 L40,15 L44,16 L43,13 L45,9 L47,8 L46,6 L50,7 L52,1 L57,0 L62,2 L60,7 L46,28 L37,40 L31,44 L24,43 L20,41 L14,33 L12,31 L5,20 L-4,6 L-2,2 L0,2 Z " fill="#05A8A9" transform="translate(271,550)"/>
<path d="M0,0 L2,1 L-7,9 L-10,13 L-15,16 L-33,34 L-42,46 L-52,61 L-61,78 L-66,91 L-70,99 L-70,102 L-68,97 L-66,97 L-66,99 L-62,99 L-60,105 L-58,101 L-53,96 L-53,99 L-51,99 L-51,97 L-49,98 L-50,100 L-46,102 L-48,102 L-47,105 L-49,105 L-49,103 L-51,104 L-47,107 L-54,108 L-56,107 L-56,109 L-59,110 L-54,111 L-56,114 L-54,114 L-51,121 L-58,121 L-59,124 L-62,128 L-63,128 L-64,131 L-65,131 L-65,126 L-70,125 L-72,125 L-74,126 L-76,130 L-77,130 L-77,123 L-81,144 L-82,144 L-82,133 L-75,106 L-70,92 L-64,79 L-57,65 L-47,49 L-33,31 L-14,12 L-12,12 L-12,10 L-1,1 Z M-51,119 Z " fill="#C64974" transform="translate(166,47)"/>
<path d="M0,0 L3,0 L6,1 L5,5 L4,4 L3,8 L0,8 L-1,6 L-5,12 L-10,13 L-11,11 L-16,11 L-16,13 L-18,13 L-19,12 L-21,13 L-22,11 L-27,13 L-30,13 L-34,10 L-37,12 L-42,12 L-40,14 L-42,15 L-44,14 L-45,19 L-50,19 L-55,20 L-58,19 L-61,20 L-63,22 L-66,20 L-71,21 L-72,23 L-79,22 L-83,23 L-83,21 L-87,22 L-81,14 L-76,9 L-77,13 L-70,11 L-65,12 L-62,9 L-59,10 L-56,7 L-55,10 L-49,8 L-46,7 L-44,9 L-38,7 L-35,5 L-30,6 L-30,8 L-28,6 L-27,4 L-23,5 L-18,2 L-13,3 L-10,2 L-4,4 L-3,1 L0,2 Z " fill="#7FA591" transform="translate(491,284)"/>
<path d="M0,0 L25,0 L23,2 L20,2 L19,4 L18,3 L19,6 L21,6 L25,8 L24,11 L21,11 L22,14 L23,16 L15,17 L12,23 L10,22 L10,19 L7,21 L8,23 L5,24 L4,27 L-1,28 L-5,26 L-5,24 L-7,24 L-8,16 L-7,15 L-9,12 L-7,12 L-7,10 L-11,9 L-12,6 L-18,4 L-15,2 L-5,2 Z " fill="#EF5D6C" transform="translate(275,6)"/>
<path d="M0,0 L1,4 L7,5 L10,6 L9,13 L7,11 L3,11 L3,9 L-1,9 L-1,13 L-4,14 L-6,13 L-7,15 L-8,13 L-13,14 L-15,16 L-18,15 L-23,16 L-24,18 L-31,16 L-31,18 L-38,19 L-40,19 L-43,20 L-45,19 L-46,22 L-51,21 L-54,21 L-58,22 L-62,24 L-63,22 L-67,24 L-70,24 L-72,26 L-73,24 L-80,26 L-78,21 L-77,16 L-73,15 L-70,16 L-69,13 L-65,16 L-62,13 L-58,12 L-57,15 L-55,15 L-53,13 L-50,13 L-50,11 L-46,11 L-42,10 L-42,14 L-40,14 L-39,15 L-36,10 L-30,11 L-31,10 L-30,8 L-28,9 L-28,11 L-26,11 L-26,9 L-23,8 L-17,9 L-16,4 L-9,6 L-4,8 L-3,10 L-3,7 L-5,6 L-2,6 L-2,4 L0,4 Z " fill="#97A08A" transform="translate(499,264)"/>
<path d="M0,0 L4,2 L4,4 L8,6 L11,14 L14,13 L15,9 L18,9 L18,17 L16,22 L21,23 L25,22 L27,27 L31,26 L32,28 L30,29 L33,32 L34,28 L35,31 L38,31 L38,33 L42,32 L49,37 L50,35 L54,39 L54,41 L56,42 L50,42 L53,43 L56,43 L56,45 L46,45 L46,42 L44,42 L44,44 L41,45 L43,47 L40,52 L42,58 L41,61 L24,36 L13,20 L3,6 L0,2 Z M25,28 L26,30 L27,28 Z " fill="#05AAAB" transform="translate(225,493)"/>
<path d="M0,0 L1,2 L2,0 L5,1 L7,5 L4,5 L9,6 L5,8 L3,8 L3,10 L11,8 L10,11 L12,12 L13,18 L17,20 L14,20 L15,23 L13,23 L14,27 L21,28 L21,25 L23,26 L22,28 L24,28 L24,26 L29,26 L30,30 L28,29 L27,32 L26,29 L22,30 L15,30 L19,32 L18,33 L11,33 L11,31 L10,34 L16,34 L15,39 L11,38 L0,29 L-12,18 L-14,14 L-13,12 L-11,12 L-9,18 L-5,20 L-2,19 L-3,17 L-7,19 L-4,14 L-6,14 L-6,16 L-9,15 L-9,12 L-6,11 L-6,8 L-1,9 L-1,6 L-3,5 L-1,4 Z " fill="#DFDDD8" transform="translate(231,314)"/>
<path d="M0,0 L7,0 L12,5 L12,13 L1,26 L-2,28 L-11,28 L-15,24 L-16,17 L-9,8 L-2,1 Z " fill="#3E5965" transform="translate(275,296)"/>
<path d="M0,0 L7,0 L12,5 L13,6 L12,13 L4,23 L-1,27 L-10,27 L-14,23 L-15,16 L-7,6 Z " fill="#32505D" transform="translate(252,282)"/>
<path d="M0,0 L2,1 L2,3 L3,2 L6,1 L7,4 L9,4 L9,12 L7,20 L8,24 L1,22 L1,24 L3,25 L1,25 L5,30 L5,32 L7,34 L6,35 L7,36 L12,36 L12,38 L9,38 L12,43 L10,43 L10,41 L8,41 L8,43 L5,43 L4,40 L5,39 L3,38 L3,40 L1,40 L1,42 L5,44 L17,53 L17,50 L13,48 L16,46 L17,43 L17,45 L19,45 L19,42 L15,40 L16,38 L13,37 L13,33 L15,33 L15,36 L17,37 L18,34 L20,38 L22,39 L22,41 L28,40 L26,41 L26,43 L29,44 L20,43 L19,49 L22,49 L23,51 L25,52 L21,53 L19,53 L21,57 L32,65 L30,67 L13,53 L3,45 L-1,41 L-2,39 L-2,9 Z " fill="#3D5965" transform="translate(177,196)"/>
<path d="M0,0 L3,0 L7,2 L10,5 L15,3 L14,9 L10,10 L11,13 L14,11 L14,13 L16,12 L16,9 L18,9 L21,13 L20,17 L24,17 L23,20 L18,21 L18,18 L16,17 L15,15 L14,18 L9,20 L4,19 L4,22 L5,26 L2,25 L-1,25 L-1,23 L-5,25 L-5,23 L-10,22 L-9,17 L-11,17 L-12,31 L-13,31 L-13,13 L-11,13 L-11,6 L-9,3 L-6,2 L-6,4 L-2,6 L0,5 L-1,2 Z " fill="#B25283" transform="translate(97,189)"/>
<path d="M0,0 L8,0 L13,5 L14,7 L14,13 L5,24 L1,26 L-5,26 L-11,21 L-12,13 L-8,7 Z " fill="#3F5A66" transform="translate(228,267)"/>
<path d="M0,0 L8,0 L13,5 L13,12 L7,20 L1,25 L-1,26 L-7,26 L-12,22 L-13,15 L-5,5 Z " fill="#425C68" transform="translate(294,312)"/>
<path d="M0,0 L2,1 L-4,7 L-5,12 L-4,15 L-9,17 L-9,14 L-9,12 L-12,16 L-11,19 L-6,21 L-3,25 L-7,24 L-7,22 L-9,22 L-8,28 L-9,29 L-7,30 L-6,35 L-9,34 L-12,35 L-15,33 L-14,28 L-16,27 L-17,26 L-18,30 L-16,33 L-20,33 L-21,37 L-23,36 L-26,38 L-27,41 L-30,41 L-29,44 L-30,46 L-28,47 L-34,49 L-36,51 L-37,51 L-37,54 L-35,54 L-34,57 L-37,58 L-39,61 L-39,59 L-41,59 L-42,57 L-43,53 L-31,34 L-22,23 L-15,15 Z " fill="#D34464" transform="translate(153,60)"/>
<path d="M0,0 L1,0 L1,9 L3,5 L6,3 L12,6 L13,8 L14,5 L15,9 L17,9 L19,13 L18,8 L22,8 L24,11 L24,14 L20,18 L18,18 L17,22 L18,24 L16,26 L14,26 L12,28 L11,23 L8,24 L9,28 L5,29 L1,25 L-2,28 L-3,35 L-4,35 L-5,24 L-1,3 Z " fill="#B84B7A" transform="translate(89,167)"/>
<path d="M0,0 L1,3 L-12,31 L-23,51 L-34,69 L-36,65 L-33,65 L-33,60 L-30,57 L-35,57 L-35,54 L-37,60 L-39,59 L-40,62 L-42,57 L-40,57 L-39,52 L-40,49 L-42,49 L-41,46 L-37,48 L-37,50 L-35,50 L-36,45 L-34,46 L-34,48 L-32,48 L-33,45 L-32,41 L-33,39 L-28,38 L-23,39 L-26,40 L-25,42 L-21,41 L-21,38 L-28,35 L-25,30 L-21,29 L-18,34 L-14,26 L-10,24 L-10,15 L-8,7 L-4,5 L-4,3 L-1,2 Z " fill="#40B8AA" transform="translate(496,305)"/>
<path d="M0,0 L1,0 L3,16 L3,46 L0,65 L-4,83 L-5,83 L-4,74 L-1,59 L-1,47 L-5,45 L-5,47 L-8,48 L-9,46 L-5,43 L-4,41 L0,39 L0,27 L-8,26 L-10,27 L-12,27 L-16,29 L-19,26 L-20,25 L-22,25 L-22,27 L-24,28 L-25,31 L-28,28 L-25,25 L-21,20 L-19,19 L-18,20 L-16,18 L-18,17 L-18,13 L-13,14 L-9,14 L-7,13 L-5,15 L-5,13 L-1,12 L0,16 Z " fill="#D19179" transform="translate(514,187)"/>
<path d="M0,0 L2,4 L2,17 L3,15 L5,15 L4,20 L7,19 L7,21 L11,21 L13,21 L15,23 L18,23 L18,25 L20,26 L22,26 L21,36 L18,36 L16,34 L15,29 L10,30 L9,27 L6,25 L4,27 L5,29 L3,29 L3,39 L5,42 L9,41 L7,46 L5,45 L4,44 L4,54 L5,61 L6,60 L7,55 L9,56 L10,55 L12,56 L13,61 L10,66 L7,69 L6,75 L4,72 L0,49 L-1,38 L-1,12 Z M7,30 L11,31 L11,32 L6,32 Z " fill="#AA759A" transform="translate(83,191)"/>
<path d="M0,0 L7,0 L9,3 L12,5 L10,9 L7,8 L6,11 L3,11 L6,16 L5,18 L4,19 L3,21 L0,20 L-1,14 L-2,13 L-7,18 L-7,20 L-10,20 L-10,24 L-12,24 L-13,26 L-15,24 L-17,26 L-20,26 L-21,20 L-18,20 L-16,19 L-14,20 L-14,18 L-13,17 L-13,11 L-11,11 L-10,9 L-6,10 L-3,3 L-9,3 L-10,5 L-15,6 L-16,8 L-18,8 L-17,12 L-20,14 L-22,12 L-21,11 L-29,10 L-40,15 L-44,14 L-24,6 L-8,1 Z " fill="#EA556C" transform="translate(249,10)"/>
<path d="M0,0 L7,0 L23,9 L33,14 L37,15 L37,17 L26,15 L26,17 L24,17 L22,14 L19,15 L20,10 L16,11 L14,11 L13,14 L10,13 L10,11 L6,12 L7,17 L8,15 L14,15 L13,17 L11,16 L12,20 L9,21 L9,19 L4,20 L4,12 L0,11 L1,9 L-3,8 L2,15 L-4,14 L-5,16 L3,16 L-1,18 L-1,22 L-8,21 L-7,13 L-3,4 Z " fill="#3A5662" transform="translate(188,166)"/>
<path d="M0,0 L3,1 L3,3 L6,4 L4,4 L4,6 L7,5 L8,6 L17,5 L18,11 L23,10 L24,7 L29,9 L37,15 L38,18 L34,21 L30,20 L29,24 L33,25 L26,26 L18,20 L18,18 L13,17 L6,14 L4,10 L1,7 L3,7 Z " fill="#435E69" transform="translate(324,274)"/>
<path d="M0,0 L1,0 L3,6 L19,18 L20,20 L15,18 L6,12 L6,17 L7,18 L7,14 L11,16 L11,22 L8,21 L6,20 L5,28 L9,29 L9,31 L5,30 L5,32 L8,32 L8,35 L6,35 L6,47 L15,49 L16,52 L11,55 L2,55 L1,51 L3,45 L3,37 L-2,29 L-10,25 L-15,24 L-15,23 L-9,22 L-5,19 L-2,19 L0,18 L-1,22 L-3,25 L3,25 L2,21 L1,23 L1,18 L1,15 L2,9 L-1,8 L1,8 L-1,5 Z " fill="#3B5763" transform="translate(311,279)"/>
<path d="M0,0 L24,0 L51,3 L62,5 L78,9 L102,18 L121,28 L119,29 L96,18 L90,19 L87,23 L82,21 L81,16 L82,14 L89,16 L88,15 L69,9 L44,4 L34,3 L18,3 L18,6 L18,8 L23,9 L28,9 L26,14 L24,11 L24,14 L18,13 L18,10 L8,7 L8,4 L11,3 L-12,3 L-18,5 L-27,4 L-27,3 L-13,1 Z " fill="#DE9698" transform="translate(287,4)"/>
<path d="M0,0 L5,1 L6,3 L8,3 L10,0 L10,8 L3,28 L1,25 L2,18 L1,14 L-3,14 L-5,14 L-8,14 L-12,16 L-16,14 L-14,14 L-13,12 L-12,11 L-19,12 L-19,10 L-21,10 L-21,8 L-14,6 L-9,4 L-5,5 L-2,5 L1,5 Z " fill="#8EA38E" transform="translate(497,272)"/>
<path d="M0,0 L2,0 L2,4 L7,4 L6,6 L0,5 L0,7 L5,7 L6,9 L5,10 L8,10 L7,7 L9,7 L9,9 L12,10 L12,14 L8,14 L6,20 L3,22 L-1,26 L-3,26 L-3,28 L-7,30 L-8,26 L-10,27 L-12,25 L-9,24 L-8,21 L-11,20 L-11,18 L-14,18 L-12,12 L-14,11 L-10,12 L-10,14 L-8,14 L-8,16 L-4,18 L0,18 L-3,16 L-2,13 L-2,10 L-4,10 L-4,12 L-6,11 L-5,7 L-6,3 L-4,2 L-4,5 L-1,5 L-2,1 Z " fill="#445E6A" transform="translate(408,221)"/>
<path d="M0,0 L0,3 L-14,22 L-28,41 L-29,37 L-28,34 L-26,33 L-26,23 L-23,23 L-23,20 L-18,19 L-19,14 L-18,11 L-19,7 L-17,5 L-14,5 L-15,1 L-10,2 L-12,4 L-12,7 L-10,6 L-8,9 L-9,5 L-7,3 L-3,2 Z M-18,9 Z " fill="#35C0B6" transform="translate(445,396)"/>
<path d="M0,0 L2,1 L-7,9 L-10,13 L-15,16 L-33,34 L-42,46 L-52,61 L-61,78 L-66,91 L-70,99 L-76,120 L-80,138 L-81,144 L-82,144 L-82,133 L-75,106 L-70,92 L-64,79 L-57,65 L-47,49 L-33,31 L-14,12 L-12,12 L-12,10 L-1,1 Z " fill="#D1DCD7" transform="translate(166,47)"/>
<path d="M0,0 L2,0 L2,2 L-4,4 L-3,9 L-6,9 L-5,13 L-7,13 L-8,11 L-15,11 L-19,15 L-23,19 L-25,22 L-27,22 L-27,27 L-23,29 L-27,31 L-26,35 L-21,36 L-24,39 L-25,37 L-27,37 L-27,34 L-32,33 L-35,30 L-38,29 L-37,24 L-32,19 L-21,11 Z " fill="#E04967" transform="translate(203,25)"/>
<path d="M0,0 L5,2 L6,5 L8,5 L9,3 L10,10 L12,8 L12,20 L7,17 L7,19 L2,18 L1,21 L-1,20 L-1,18 L-6,18 L-6,15 L-14,13 L-15,8 L-12,6 L-12,8 L-9,8 L-11,12 L-8,12 L-8,6 L-10,5 L-6,6 L-3,9 L-5,11 L-3,12 L0,9 L0,11 L2,9 L0,4 L2,4 Z " fill="#AF6292" transform="translate(144,216)"/>
<path d="M0,0 L0,3 L-2,4 L-1,8 L-3,9 L-4,12 L-6,12 L-7,15 L-10,16 L-12,15 L-12,17 L-10,18 L-12,21 L-13,16 L-16,17 L-14,19 L-15,21 L-13,21 L-13,23 L-18,25 L-18,23 L-20,24 L-21,26 L-33,26 L-33,24 L-20,14 L-2,1 Z " fill="#405A66" transform="translate(303,178)"/>
<path d="M0,0 L2,2 L7,18 L10,31 L10,36 L7,32 L5,34 L1,34 L-1,31 L-6,31 L-6,29 L-12,29 L-13,23 L-12,25 L-6,22 L-2,21 L-2,23 L0,19 L2,19 L3,23 L3,19 L5,19 L0,3 Z " fill="#E3907F" transform="translate(503,146)"/>
<path d="M0,0 L5,3 L5,6 L9,3 L11,4 L12,11 L14,11 L14,18 L11,18 L11,21 L8,20 L6,17 L-1,19 L-3,15 L-3,8 L-1,2 Z M2,6 L1,8 L6,8 L5,6 Z " fill="#A2598C" transform="translate(88,215)"/>
<path d="M0,0 L7,2 L9,5 L9,11 L5,16 L4,20 L1,22 L-1,21 L-1,15 L-3,9 L-5,12 L-3,13 L-6,13 L-7,10 L-7,8 L-6,4 Z " fill="#415B67" transform="translate(254,283)"/>
<path d="M0,0 L7,0 L5,4 L-7,21 L-15,32 L-18,35 L-18,32 L-20,31 L-16,31 L-17,26 L-14,26 L-14,23 L-19,23 L-17,19 L-21,20 L-22,17 L-18,16 L-15,16 L-9,14 L-8,15 L-6,13 L-5,9 L-2,6 L-4,5 L1,5 L0,4 Z " fill="#15B7B2" transform="translate(373,485)"/>
<path d="M0,0 L3,3 L3,6 L6,5 L7,2 L9,2 L10,5 L8,6 L8,9 L8,15 L9,17 L12,17 L17,18 L17,20 L19,21 L17,21 L17,23 L13,22 L16,25 L15,29 L12,29 L14,37 L12,39 L4,17 L0,3 Z " fill="#736E9A" transform="translate(89,267)"/>
<path d="M0,0 L5,2 L23,16 L36,26 L49,36 L62,46 L63,50 L62,48 L58,46 L43,34 L35,34 L35,36 L33,36 L32,34 L30,35 L29,31 L27,31 L26,33 L26,31 L24,31 L25,28 L27,29 L28,27 L30,28 L30,31 L32,31 L31,27 L25,20 L9,8 L0,1 Z " fill="#405B67" transform="translate(319,222)"/>
<path d="M0,0 L5,2 L20,14 L33,24 L35,27 L35,33 L31,38 L29,39 L23,39 L6,27 L5,25 L10,27 L13,28 L17,32 L21,35 L24,34 L24,28 L26,30 L31,29 L32,27 L27,22 L11,10 L6,6 L0,2 Z " fill="#385562" transform="translate(329,264)"/>
<path d="M0,0 L2,0 L2,3 L4,3 L3,8 L-1,9 L1,10 L-1,14 L-3,16 L-1,18 L-4,20 L-4,23 L-1,25 L-1,26 L3,26 L2,30 L1,31 L-1,32 L-2,35 L-2,33 L-4,32 L-5,28 L-9,27 L-8,25 L-10,25 L-11,30 L-13,32 L-13,27 L-8,17 L-4,6 Z " fill="#CA4468" transform="translate(108,119)"/>
<path d="M0,0 L6,2 L11,4 L9,5 L8,8 L8,5 L5,7 L8,9 L10,9 L10,11 L14,12 L11,13 L12,18 L20,18 L20,19 L12,20 L5,10 L-3,5 L-10,5 L-19,10 L-23,14 L-27,13 L-30,9 L-27,8 L-29,6 L-27,5 L-23,9 L-22,7 L-18,7 L-17,2 L-14,1 L-13,2 L-2,2 Z " fill="#375461" transform="translate(239,254)"/>
<path d="M0,0 L6,1 L29,12 L27,14 L20,10 L15,9 L13,13 L11,14 L11,17 L11,20 L9,20 L8,15 L6,14 L7,12 L8,11 L4,10 L-1,8 L-1,2 L2,2 Z " fill="#F46764" transform="translate(379,21)"/>
<path d="M0,0 L1,0 L3,16 L3,46 L0,65 L-4,83 L-5,83 L-4,74 L-1,59 L-1,47 L-5,45 L-5,47 L-8,48 L-9,46 L-5,43 L-4,41 L0,39 Z " fill="#D2C5B8" transform="translate(514,187)"/>
<path d="M0,0 L7,2 L5,7 L-6,23 L-8,19 L-9,17 L-7,17 L-8,11 L-4,10 L-3,1 Z " fill="#15B1AF" transform="translate(326,550)"/>
<path d="M0,0 L4,2 L3,4 L9,3 L8,8 L10,13 L8,14 L1,14 L-3,11 L-5,8 L-4,2 Z " fill="#425D69" transform="translate(242,294)"/>
<path d="M0,0 L2,0 L1,4 L-12,23 L-13,23 L-12,16 L-10,16 L-12,9 L-17,10 L-18,8 L-14,9 L-14,6 L-16,6 L-17,3 L-13,2 L-12,6 L-7,4 L0,3 Z M-11,7 Z " fill="#12B5B1" transform="translate(352,520)"/>
<path d="M0,0 L5,0 L3,4 L-13,25 L-17,31 L-18,31 L-18,25 L-16,22 L-14,22 L-16,17 L-15,15 L-7,14 L-6,9 L-5,4 L-3,5 L-1,4 Z " fill="#4FC2BC" transform="translate(398,454)"/>
<path d="M0,0 L5,4 L13,15 L12,17 L12,20 L5,22 L5,27 L8,28 L11,31 L10,34 L6,34 L6,31 L3,31 L2,25 L0,21 L5,19 L5,15 L8,14 L0,4 Z M7,31 Z " fill="#F57466" transform="translate(467,83)"/>
<path d="M0,0 L9,0 L10,3 L16,3 L17,6 L14,7 L12,16 L8,20 L7,14 L8,13 L6,10 L8,10 L8,8 L4,7 L3,4 L-3,2 Z " fill="#ED5869" transform="translate(260,8)"/>
<path d="M0,0 L8,0 L13,5 L14,7 L14,13 L6,22 L6,19 L9,15 L3,15 L1,11 L4,8 L7,7 L7,3 L-1,3 Z " fill="#395662" transform="translate(228,267)"/>
<path d="M0,0 L5,3 L16,12 L31,27 L30,29 L14,13 L18,18 L18,21 L15,20 L10,18 L10,16 L6,17 L6,15 L9,15 L7,13 L6,11 L9,11 L9,9 L5,7 L0,3 Z " fill="#E7928A" transform="translate(431,48)"/>
<path d="M0,0 L6,2 L9,7 L9,11 L15,11 L13,13 L16,14 L16,16 L20,15 L20,18 L20,21 L22,21 L21,24 L19,24 L19,22 L10,20 L10,19 L15,19 L15,15 L7,14 L7,11 L7,7 L4,8 L5,12 L3,11 L1,15 L-1,5 Z " fill="#D8D9D5" transform="translate(286,292)"/>
<path d="M0,0 L2,0 L2,3 L4,3 L6,7 L16,11 L15,20 L19,24 L20,30 L22,31 L19,31 L3,7 L0,3 Z " fill="#30A1B0" transform="translate(137,371)"/>
<path d="M0,0 L2,2 L3,8 L5,6 L6,9 L5,12 L2,12 L0,14 L-2,12 L-3,12 L-5,12 L-3,15 L8,15 L6,18 L-3,18 L-7,14 L-8,7 L-4,2 L-2,3 L-3,5 L-1,5 Z " fill="#3F5965" transform="translate(267,306)"/>
<path d="M0,0 L4,2 L6,4 L8,3 L10,7 L12,7 L14,12 L12,12 L16,16 L15,20 L10,15 L1,3 Z M17,1 L22,1 L20,5 L22,5 L21,7 L18,7 L17,9 L17,6 L14,6 L13,8 L13,4 L16,3 Z M22,3 L24,4 L22,5 Z " fill="#09A6B1" transform="translate(166,414)"/>
<path d="M0,0 L5,2 L13,9 L13,16 L8,21 L6,22 L-1,22 L-5,20 L-4,27 L-6,27 L-6,22 L-8,22 L-9,25 L-11,21 L-7,20 L-7,15 L-3,17 L-1,19 L7,20 L6,16 L9,15 L9,13 L11,13 L9,8 L0,1 Z " fill="#365460" transform="translate(332,300)"/>
<path d="M0,0 L4,1 L3,5 L1,5 L-1,9 L0,14 L2,14 L1,16 L2,17 L1,23 L-4,18 L-10,9 L-5,9 L-4,7 L-6,6 L-4,3 L-1,2 Z " fill="#06ACB3" transform="translate(224,470)"/>
<path d="M0,0 L3,3 L5,5 L4,11 L2,13 L3,18 L6,19 L9,21 L9,23 L7,23 L8,26 L6,28 L-3,10 L-4,1 Z M6,17 Z " fill="#5883A5" transform="translate(113,316)"/>
<path d="M0,0 L6,2 L28,4 L43,7 L43,9 L46,10 L39,9 L25,6 L1,6 L-10,7 L-9,5 L-3,5 L-2,1 Z " fill="#F25B58" transform="translate(344,105)"/>
<path d="M0,0 L5,5 L16,19 L19,24 L16,23 L12,18 L12,16 L10,16 L9,19 L7,19 L6,21 L-1,20 L-1,18 L-6,19 L-5,16 L-1,13 L4,15 L7,15 L6,10 L0,2 Z " fill="#607BA1" transform="translate(181,289)"/>
<path d="M0,0 L1,3 L-6,23 L-8,20 L-7,13 L-8,9 L-11,8 L-12,4 L-9,4 L-9,2 L-5,1 L-5,3 L-3,3 Z " fill="#86A48F" transform="translate(506,277)"/>
<path d="M0,0 L3,2 L4,0 L9,0 L8,5 L-1,13 L-4,20 L-5,31 L-6,31 L-6,19 L-8,19 L-8,22 L-10,22 L-11,17 L-8,17 L-5,16 L-3,10 L-1,9 Z " fill="#3D5965" transform="translate(249,197)"/>
<path d="M0,0 L4,0 L4,2 L10,2 L9,7 L10,9 L7,9 L7,11 L10,11 L9,15 L13,17 L19,25 L17,27 L11,18 L3,14 L-2,13 L1,11 L1,8 L5,8 L4,3 L-1,5 Z " fill="#3F5965" transform="translate(278,274)"/>
<path d="M0,0 L4,2 L4,5 L7,6 L8,10 L11,11 L17,19 L17,22 L20,23 L20,25 L23,26 L22,28 L25,28 L26,32 L28,33 L29,38 L32,39 L32,42 L34,43 L31,43 L19,27 L7,11 L0,2 Z " fill="#53ABB1" transform="translate(181,434)"/>
<path d="M0,0 L1,2 L-4,14 L-7,23 L-13,43 L-16,60 L-17,60 L-17,49 L-10,22 L-5,8 L-2,1 Z " fill="#CBD0CD" transform="translate(101,131)"/>
<path d="M0,0 L1,3 L-12,31 L-14,33 L-15,29 L-12,24 L-10,24 L-10,15 L-8,7 L-4,5 L-4,3 L-1,2 Z " fill="#4DB2A2" transform="translate(496,305)"/>
<path d="M0,0 L4,1 L-1,2 L-2,4 L-7,5 L-8,7 L-10,7 L-9,11 L-12,13 L-14,11 L-13,10 L-21,9 L-32,14 L-36,13 L-16,5 Z " fill="#D17E8B" transform="translate(241,11)"/>
<path d="M0,0 L1,0 L2,12 L5,13 L6,6 L8,7 L9,6 L11,7 L12,12 L9,17 L6,20 L5,26 L3,23 L0,7 Z " fill="#9C82A4" transform="translate(84,240)"/>
<path d="M0,0 L4,2 L4,4 L8,6 L11,14 L14,13 L15,9 L18,9 L18,17 L16,22 L19,23 L20,26 L17,26 L8,13 L0,2 Z " fill="#06AAAD" transform="translate(225,493)"/>
<path d="M0,0 L8,1 L14,3 L17,2 L18,5 L16,7 L13,7 L14,8 L13,16 L18,15 L21,18 L13,26 L11,25 L15,20 L13,19 L14,17 L11,18 L11,9 L8,4 L0,1 Z " fill="#E4E3DF" transform="translate(230,265)"/>
<path d="M0,0 L3,3 L6,2 L7,9 L18,23 L18,25 L20,25 L22,28 L27,27 L28,25 L30,28 L26,30 L27,34 L29,38 L22,32 L11,18 L1,4 Z " fill="#E4E1DD" transform="translate(177,280)"/>
<path d="M0,0 L7,2 L9,1 L17,3 L38,13 L39,15 L33,13 L14,4 L8,5 L5,9 L0,7 L-1,2 Z " fill="#E7908D" transform="translate(369,18)"/>
<path d="M0,0 L8,0 L13,5 L13,12 L9,16 L9,9 L11,9 L10,5 L7,4 L8,9 L4,8 L3,2 L-2,5 L-4,8 L-6,8 L-4,4 Z " fill="#385662" transform="translate(294,312)"/>
<path d="M0,0 L2,1 L-7,8 L-17,14 L-21,12 L-20,8 L-17,9 L-18,12 L-14,8 L-16,4 L-14,5 L-12,3 L-5,2 Z " fill="#385561" transform="translate(302,216)"/>
<path d="M0,0 L7,0 L5,4 L-7,21 L-8,17 L-6,13 L-5,9 L-2,6 L-4,5 L1,5 L0,4 Z " fill="#47C1BC" transform="translate(373,485)"/>
<path d="M0,0 L6,3 L14,4 L11,6 L12,11 L5,12 L0,7 L-3,4 L-2,2 L2,4 L2,2 L0,2 Z " fill="#E0DED9" transform="translate(343,299)"/>
<path d="M0,0 L2,1 L0,4 L1,5 L1,7 L-1,8 L3,10 L4,12 L2,12 L2,15 L0,14 L-3,14 L-5,10 L-7,9 L-12,11 L-15,10 Z " fill="#395561" transform="translate(312,222)"/>
<path d="M0,0 L8,0 L9,1 L16,1 L14,6 L13,9 L11,9 L9,7 L7,8 L1,8 Z " fill="#465F6B" transform="translate(364,181)"/>
<path d="M0,0 L4,5 L6,1 L8,5 L2,17 L0,13 L2,10 L-2,8 L-6,6 L-3,1 Z " fill="#49B8A9" transform="translate(474,334)"/>
<path d="M0,0 L4,1 L15,8 L21,13 L26,13 L26,15 L30,16 L29,22 L29,25 L20,15 L7,5 L0,1 Z " fill="#EF6459" transform="translate(394,117)"/>
<path d="M0,0 L1,2 L4,3 L0,4 L-1,10 L1,10 L1,7 L4,8 L4,10 L2,10 L3,13 L0,14 L-1,17 L0,21 L-2,22 L-4,26 L-5,26 L-4,13 Z " fill="#C2436B" transform="translate(94,151)"/>
<path d="M0,0 L25,0 L23,2 L20,2 L19,4 L18,3 L16,4 L16,2 L6,2 L7,4 L9,3 L9,7 L3,6 L2,4 L-5,3 L-3,1 Z " fill="#EB5462" transform="translate(275,6)"/>
<path d="M0,0 L2,1 L1,4 L4,3 L6,7 L3,7 L0,6 L-1,8 L-3,8 L-1,13 L0,14 L8,14 L15,9 L13,13 L7,17 L1,17 L-4,13 L-5,6 Z " fill="#2D4E5A" transform="translate(286,321)"/>
<path d="M0,0 L1,0 L2,5 L8,4 L9,10 L9,12 L7,12 L7,14 L4,14 L4,16 L1,17 L1,14 L3,11 L2,9 L-2,8 L-1,3 Z M8,3 Z " fill="#09AFAD" transform="translate(333,524)"/>
<path d="M0,0 L2,1 L7,17 L6,20 L4,18 L1,18 L0,20 L-2,20 L-5,21 L-6,19 L-3,19 L-2,14 L0,13 L1,6 Z " fill="#EB7F6C" transform="translate(501,145)"/>
<path d="M0,0 L2,0 L2,2 L-4,4 L-3,9 L-6,9 L-5,13 L-7,13 L-8,11 L-15,11 L-22,13 L-19,10 Z " fill="#CA7787" transform="translate(203,25)"/>
<path d="M0,0 L4,1 L3,2 L7,4 L8,6 L11,7 L11,3 L15,2 L13,6 L6,15 L3,16 L-1,13 L3,12 L4,13 L6,10 L8,10 L8,8 L3,9 L2,4 L0,3 Z " fill="#34B4B3" transform="translate(301,576)"/>
<path d="M0,0 L2,1 L6,7 L5,13 L-1,14 L0,10 L-1,7 L-3,10 L-4,5 L-2,5 L-2,3 L-6,4 L-5,2 L0,2 Z " fill="#435E69" transform="translate(280,296)"/>
<path d="M0,0 L3,1 L6,2 L18,0 L29,0 L29,1 L8,4 L-4,7 L-14,12 L-17,11 L-15,11 L-14,8 L-9,7 L-3,4 L-3,1 Z " fill="#E63F5E" transform="translate(216,108)"/>
<path d="M0,0 L4,2 L10,0 L15,2 L20,7 L27,12 L25,14 L14,5 L11,3 L6,4 L7,11 L4,10 L4,8 L-1,8 Z " fill="#32515D" transform="translate(322,253)"/>
<path d="M0,0 L1,0 L1,9 L3,5 L6,9 L5,14 L2,14 L1,17 L-1,19 L-3,22 L-3,12 Z " fill="#B04A70" transform="translate(89,167)"/>
<path d="M0,0 L2,1 L1,7 L-5,16 L-10,11 L-10,9 L-7,9 L-5,5 L-1,4 Z " fill="#33BDAF" transform="translate(452,380)"/>
<path d="M0,0 L1,3 L3,7 L1,11 L-3,11 L-3,9 L-1,9 L-1,7 L-4,6 L-5,9 L-7,9 L-8,13 L-10,12 L-14,16 L-13,11 L-3,2 Z " fill="#35525F" transform="translate(268,204)"/>
<path d="M0,0 L2,1 L1,3 L3,4 L4,6 L6,7 L7,5 L8,8 L5,11 L2,11 L2,9 L-7,9 L-10,6 L-11,2 L-7,3 L-4,2 L-5,5 L-8,5 L-4,6 L-2,5 L-2,8 L0,7 L-1,2 Z " fill="#455F6A" transform="translate(269,224)"/>
<path d="M0,0 L2,1 L-1,5 L2,6 L1,12 L0,18 L-5,20 L-7,18 L-3,17 L-1,9 L-4,9 L-5,5 Z M-5,9 L-3,13 L-5,12 Z " fill="#E3E2DD" transform="translate(259,301)"/>
<path d="M0,0 L5,2 L23,16 L36,26 L37,28 L32,26 L16,13 L5,5 Z " fill="#2C4D5A" transform="translate(319,222)"/>
<path d="M0,0 L2,1 L3,4 L1,4 L2,7 L-2,7 L1,9 L-2,10 L-7,9 L-6,11 L-3,13 L-5,13 L-5,15 L-7,15 L-7,17 L-9,17 L-9,12 L-11,12 L-10,9 L-5,5 L-4,6 Z " fill="#445E6A" transform="translate(264,209)"/>
<path d="M0,0 L7,0 L12,8 L11,11 L9,7 L7,7 L7,14 L0,15 L1,11 L3,10 L4,4 L6,4 L5,2 L-1,2 Z " fill="#365360" transform="translate(403,166)"/>
<path d="M0,0 L5,2 L17,12 L22,14 L23,12 L28,12 L30,4 L31,4 L30,11 L26,15 L20,16 L14,12 L1,2 Z " fill="#30505D" transform="translate(352,269)"/>
<path d="M0,0 L1,4 L7,5 L10,6 L9,13 L7,11 L3,11 L3,9 L-5,7 L-2,6 L-2,4 L0,4 Z " fill="#A1A996" transform="translate(499,264)"/>
<path d="M0,0 L1,0 L2,11 L4,12 L1,13 L2,23 L1,34 L-1,33 L-1,3 Z " fill="#304F5C" transform="translate(176,202)"/>
<path d="M0,0 L3,1 L3,6 L-5,17 L-6,17 L-6,11 L-4,8 L-2,8 L-4,3 L-3,1 Z " fill="#30BDB7" transform="translate(386,468)"/>
<path d="M0,0 L4,2 L7,7 L13,10 L12,17 L15,18 L16,21 L13,21 L5,9 L0,2 Z M15,17 Z " fill="#1EA6A9" transform="translate(244,520)"/>
<path d="M0,0 L5,4 L4,6 L1,4 L-4,6 L-5,11 L-6,13 L-4,13 L-4,15 L-9,14 L-9,16 L-13,16 L-12,11 L-9,11 L-7,5 L-5,5 L-4,3 L0,2 Z " fill="#F46F65" transform="translate(462,77)"/>
<path d="M0,0 L3,1 L2,6 L3,14 L5,14 L8,20 L5,20 L-4,6 L-2,2 L0,2 Z " fill="#2BA6AA" transform="translate(271,550)"/>
<path d="M0,0 L7,0 L10,3 L12,5 L12,7 L15,8 L15,10 L13,10 L13,12 L11,12 L9,7 L3,6 L3,2 L-8,3 L-5,1 Z " fill="#E77D89" transform="translate(253,8)"/>
<path d="M0,0 L3,1 L2,6 L7,5 L5,10 L0,11 L-2,9 L-6,8 L-2,6 L-2,4 L-6,3 L-1,1 Z " fill="#17AFAD" transform="translate(312,568)"/>
<path d="M0,0 L2,0 L5,8 L11,9 L10,11 L19,17 L17,19 L4,10 L-5,5 L-1,4 L1,5 L-2,1 Z " fill="#EA5363" transform="translate(282,112)"/>
<path d="M0,0 L5,5 L6,9 L5,11 L0,10 L-4,5 L-3,2 L0,2 Z " fill="#DDDCD8" transform="translate(266,277)"/>
<path d="M0,0 L1,0 L3,13 L8,12 L6,17 L4,16 L3,15 L3,32 L2,32 L0,20 Z " fill="#8B5787" transform="translate(84,220)"/>
<path d="M0,0 L24,0 L24,1 L-12,3 L-18,5 L-27,4 L-27,3 L-13,1 Z " fill="#D9D1CE" transform="translate(287,4)"/>
<path d="M0,0 L7,2 L4,8 L6,14 L5,17 L-2,7 L-2,5 L1,5 Z " fill="#14ABAC" transform="translate(261,537)"/>
<path d="M0,0 L1,0 L1,8 L-3,13 L-14,22 L-16,22 L-16,20 L-11,16 L-12,14 L-7,13 L-6,7 L-1,7 Z " fill="#33525E" transform="translate(421,227)"/>
<path d="M0,0 L6,2 L22,13 L23,15 L14,12 L11,9 L4,5 L0,3 Z " fill="#E0958D" transform="translate(408,33)"/>
<path d="M0,0 L2,0 L1,4 L-1,7 L4,12 L3,15 L-1,10 L-8,7 L-13,6 L-13,5 L-7,4 L-3,1 L0,1 Z " fill="#35535F" transform="translate(309,297)"/>
<path d="M0,0 L7,1 L4,4 L-6,9 L-12,13 L-14,13 L-15,9 L-10,9 L-5,6 L-3,6 L-2,2 Z " fill="#ED5461" transform="translate(317,114)"/>
<path d="M0,0 L2,1 L-7,9 L-10,13 L-15,16 L-25,26 L-25,23 L-14,12 L-12,12 L-12,10 L-1,1 Z " fill="#B3A7A9" transform="translate(166,47)"/>
<path d="M0,0 L3,1 L3,3 L0,6 L-2,7 L-2,5 L-5,6 L-2,9 L-10,8 L-10,2 L-8,2 L-7,1 L0,2 Z " fill="#06A8A8" transform="translate(306,583)"/>
<path d="M0,0 L2,1 L-4,7 L-5,12 L-4,15 L-9,17 L-9,14 L-9,12 L-13,16 L-15,15 Z " fill="#D53859" transform="translate(153,60)"/>
<path d="M0,0 L8,1 L23,6 L25,7 L24,9 L17,7 L12,5 L4,5 L4,3 L0,1 Z " fill="#EF5954" transform="translate(352,12)"/>
<path d="M0,0 L4,1 L-3,3 L1,4 L1,7 L4,4 L3,9 L1,9 L1,11 L-4,10 L-4,8 L-2,8 L-1,6 L-4,7 L-4,4 L-8,5 L-5,2 Z " fill="#36535F" transform="translate(313,173)"/>
<path d="M0,0 L5,2 L8,3 L12,7 L19,12 L25,11 L29,7 L28,11 L24,14 L18,14 L1,2 Z " fill="#294B58" transform="translate(334,289)"/>
<path d="M0,0 L4,1 L13,8 L11,9 L6,6 L2,6 L5,11 L8,14 L4,13 L-2,8 L1,7 L3,2 L0,2 Z " fill="#E2E2DF" transform="translate(337,225)"/>
<path d="M0,0 L5,4 L13,15 L12,17 L10,16 L8,18 L6,15 L8,14 L0,4 Z " fill="#E48E85" transform="translate(467,83)"/>
<path d="M0,0 L2,1 L1,3 L3,4 L-1,5 L-1,11 L1,13 L12,13 L10,16 L1,16 L-3,12 L-4,5 Z " fill="#2A4B58" transform="translate(263,308)"/>
<path d="M0,0 L4,2 L7,4 L6,9 L8,10 L2,11 L1,5 L-1,5 Z " fill="#425C67" transform="translate(219,281)"/>
<path d="M0,0 L3,3 L3,6 L6,5 L7,2 L9,2 L10,5 L8,6 L8,9 L7,12 L3,13 L0,3 Z " fill="#8A76A1" transform="translate(89,267)"/>
<path d="M0,0 L6,1 L29,12 L27,14 L11,6 L7,4 L2,4 L2,2 Z " fill="#ED574D" transform="translate(379,21)"/>
<path d="M0,0 L4,1 L5,6 L2,10 L1,13 L-1,9 L0,8 L-5,7 Z " fill="#D8D8D4" transform="translate(240,281)"/>
<path d="M0,0 L5,2 L20,14 L25,18 L24,21 L24,19 L20,17 L5,5 Z " fill="#2F4F5C" transform="translate(357,251)"/>
<path d="M0,0 L5,2 L6,6 L0,8 L0,11 L-2,11 L-4,14 L-5,9 L-4,5 L1,4 Z " fill="#445E6A" transform="translate(324,241)"/>
<path d="M0,0 L1,0 L1,10 L-3,9 L-3,11 L-5,11 L-6,13 L-11,11 L-10,5 L-8,6 L-4,7 L0,6 Z " fill="#DC9480" transform="translate(513,182)"/>
<path d="M0,0 L4,1 L-4,2 L-4,4 L3,5 L2,11 L5,13 L1,14 L-1,9 L-3,9 L-7,1 Z " fill="#375360" transform="translate(233,181)"/>
<path d="M0,0 L3,1 L6,3 L5,5 L4,7 L10,17 L9,20 L0,5 L-2,1 Z " fill="#EC695C" transform="translate(426,141)"/>
<path d="M0,0 L3,1 L7,11 L6,14 L5,12 L1,13 L-1,4 L-2,2 L0,2 Z " fill="#EF7062" transform="translate(488,116)"/>
<path d="M0,0 L2,0 L2,3 L4,3 L4,0 L9,1 L10,5 L8,7 L4,6 L2,5 L1,7 L-2,4 Z " fill="#F2616B" transform="translate(305,7)"/>
<path d="M0,0 L0,3 L-9,15 L-11,14 L-10,11 L-8,8 L-9,5 L-7,3 L-3,2 Z " fill="#5EC5BD" transform="translate(445,396)"/>
<path d="M0,0 L4,1 L2,1 L3,5 L4,6 L6,6 L6,11 L0,9 L-1,7 L1,3 L-6,3 L-7,5 L-14,4 L-14,3 Z " fill="#35535F" transform="translate(379,179)"/>
<path d="M0,0 L2,1 L-3,7 L-5,12 L-6,23 L-7,23 L-7,11 L-9,11 L-9,14 L-11,14 L-12,9 L-9,9 L-6,8 L-2,2 Z " fill="#2F4F5C" transform="translate(250,205)"/>
<path d="M0,0 L2,1 L-2,5 L-5,10 L-10,11 L-14,13 L-10,7 Z " fill="#C37483" transform="translate(179,38)"/>
<path d="M0,0 L2,0 L2,2 L5,1 L6,6 L5,10 L6,18 L4,16 L0,4 Z " fill="#E77261" transform="translate(435,157)"/>
<path d="M0,0 L3,1 L4,6 L7,7 L10,9 L10,11 L8,11 L9,14 L7,16 L0,2 Z M7,5 Z " fill="#5792AB" transform="translate(112,328)"/>
<path d="M0,0 L2,1 L11,2 L11,3 L4,5 L-4,13 L-4,10 L-2,8 L-1,1 Z " fill="#E5E4DF" transform="translate(290,308)"/>
<path d="M0,0 L1,0 L3,6 L19,18 L20,20 L15,18 L2,8 L-1,5 Z " fill="#2E4E5B" transform="translate(311,279)"/>
<path d="M0,0 L1,2 L3,3 L-6,16 L-7,13 L-9,12 L-5,12 L-6,7 L-3,7 L-1,2 Z " fill="#4DBFBB" transform="translate(362,504)"/>
<path d="M0,0 L10,1 L14,3 L11,5 L10,7 L6,8 L4,5 L4,2 Z " fill="#35535F" transform="translate(335,173)"/>
<path d="M0,0 L4,3 L4,5 L1,6 L-1,6 L-1,8 L-5,7 L-5,9 L-7,8 L-5,2 Z " fill="#F1695D" transform="translate(463,80)"/>
<path d="M0,0 L4,2 L6,4 L8,3 L10,7 L11,11 L8,12 L0,2 Z " fill="#24A8B1" transform="translate(166,414)"/>
<path d="M0,0 L4,1 L6,0 L5,4 L2,6 L3,12 L-2,7 L-4,3 L0,2 Z " fill="#365360" transform="translate(270,273)"/>
<path d="M0,0 L2,4 L3,13 L0,9 L-2,11 L-6,11 L-5,5 L-2,6 Z " fill="#DD9D8D" transform="translate(510,169)"/>
<path d="M0,0 L3,3 L10,15 L9,17 L6,16 L0,4 Z " fill="#E1938A" transform="translate(480,100)"/>
<path d="M0,0 L4,2 L4,4 L8,6 L11,14 L13,16 L10,16 L0,2 Z " fill="#5BAFB3" transform="translate(225,493)"/>
<path d="M0,0 L3,0 L3,4 L5,4 L3,8 L-2,15 L-3,11 L-2,8 L0,7 Z " fill="#51C1BA" transform="translate(419,422)"/>
<path d="M0,0 L6,1 L9,4 L5,4 L8,5 L8,7 L3,7 L2,4 L-2,5 L-3,2 Z " fill="#435D69" transform="translate(191,168)"/>
<path d="M0,0 L0,3 L-7,12 L-8,8 L-10,8 L-10,6 L-6,6 L-6,3 L-3,3 L-3,1 Z " fill="#64C5BF" transform="translate(411,442)"/>
<path d="M0,0 L5,3 L13,11 L16,14 L12,13 L9,10 L5,8 L3,10 L2,3 L0,2 Z " fill="#338BA6" transform="translate(214,328)"/>
<path d="M0,0 L2,0 L1,4 L-2,4 L0,12 L-2,14 L-6,4 L-5,1 L-2,1 Z " fill="#8088A9" transform="translate(103,292)"/>
<path d="M0,0 L1,4 L3,4 L4,2 L2,11 L0,16 L-2,13 L-1,6 L-2,3 Z " fill="#95B7A9" transform="translate(500,284)"/>
<path d="M0,0 L2,2 L4,0 L4,2 L9,2 L9,5 L7,5 L6,9 L3,9 L0,3 Z " fill="#836A99" transform="translate(89,264)"/>
<path d="M0,0 L4,1 L4,5 L9,5 L9,7 L7,7 L6,9 L3,6 L3,8 L0,7 L-3,4 L-2,2 L0,3 Z " fill="#3D5763" transform="translate(284,210)"/>
<path d="M0,0 L5,0 L9,2 L8,6 L10,7 L10,9 L1,7 L3,1 Z " fill="#E2DFDB" transform="translate(189,159)"/>
<path d="M0,0 L2,0 L2,2 L-3,5 L-7,11 L-9,11 L-9,14 L-11,14 L-10,10 L-8,6 L-2,1 Z " fill="#E24765" transform="translate(185,36)"/>
<path d="M0,0 L5,1 L0,10 L-3,13 L-3,8 L-1,8 L-2,4 Z " fill="#48B8B6" transform="translate(323,559)"/>
<path d="M0,0 L4,0 L4,5 L2,5 L3,9 L1,10 L0,6 L-2,5 L-3,2 Z " fill="#3AB6A9" transform="translate(466,352)"/>
<path d="M0,0 L2,1 L-2,5 L0,6 L1,4 L0,8 L-2,8 L-3,11 L-6,9 L-4,9 L-4,6 L-7,6 L-7,4 Z " fill="#35535F" transform="translate(398,169)"/>
<path d="M0,0 L4,1 L3,2 L6,3 L4,3 L3,5 L-3,4 L-6,5 L-7,2 L-9,1 Z " fill="#E7E5E1" transform="translate(338,321)"/>
<path d="M0,0 L6,3 L14,4 L10,6 L8,8 L8,5 L2,5 L2,7 L-2,5 L-2,2 L2,4 L2,2 L0,2 Z " fill="#D7D7D3" transform="translate(343,299)"/>
<path d="M0,0 L1,0 L2,3 L4,0 L8,3 L4,3 L3,8 L-1,7 L-3,11 L-4,7 L-2,6 Z " fill="#D25178" transform="translate(127,142)"/>
<path d="M0,0 L3,1 L5,5 L4,9 L-5,7 L-6,5 L2,4 L2,2 L-1,1 Z " fill="#EA5669" transform="translate(272,107)"/>
<path d="M0,0 L7,2 L7,6 L9,7 L11,11 L10,14 L0,1 Z " fill="#54AEB3" transform="translate(214,479)"/>
<path d="M0,0 L2,1 L1,4 L4,3 L6,7 L3,7 L0,6 L-1,8 L-3,8 L-4,4 Z " fill="#385561" transform="translate(286,321)"/>
<path d="M0,0 L2,1 L1,6 L-4,16 L-6,15 L-5,9 L-1,7 L-1,1 Z " fill="#7BC7BE" transform="translate(487,322)"/>
<path d="M0,0 L9,1 L15,5 L21,13 L19,15 L13,6 L5,2 L0,1 Z " fill="#264856" transform="translate(276,286)"/>
<path d="M0,0 L2,1 L1,3 L3,4 L2,6 L4,6 L4,8 L6,8 L6,10 L8,10 L7,13 L3,12 L0,4 Z M7,6 L11,7 L6,8 Z " fill="#8490AC" transform="translate(93,280)"/>
<path d="M0,0 L2,3 L0,3 L0,7 L-3,10 L-3,13 L-5,12 L-5,4 L-6,2 L-1,1 Z " fill="#DBD9D5" transform="translate(248,269)"/>
<path d="M0,0 L8,2 L6,6 L9,5 L7,13 L5,13 L3,4 Z " fill="#E7E6E2" transform="translate(378,265)"/>
<path d="M0,0 L1,0 L1,21 L0,21 L0,5 L-2,5 L-1,8 L-3,9 L-3,5 L-5,4 L0,2 Z " fill="#C48B74" transform="translate(514,212)"/>
<path d="M0,0 L9,3 L15,5 L15,7 L4,5 L4,7 L2,7 L1,4 L1,2 Z " fill="#31505D" transform="translate(210,176)"/>
<path d="M0,0 L2,0 L2,3 L4,3 L5,6 L2,7 L0,10 L0,8 L-2,8 L-3,6 L-3,3 L-1,3 Z " fill="#D34064" transform="translate(114,111)"/>
<path d="M0,0 L5,3 L10,7 L10,10 L13,11 L11,12 L9,11 L9,9 L5,7 L0,3 Z " fill="#E47F76" transform="translate(431,48)"/>
<path d="M0,0 L4,1 L3,2 L8,2 L8,5 L4,4 L4,6 L-2,4 L-4,3 L-3,1 Z " fill="#46606C" transform="translate(295,270)"/>
<path d="M0,0 L1,4 L4,4 L2,8 L-1,9 L0,11 L-2,11 L-2,13 L-6,11 L-4,7 L1,7 L-1,6 Z " fill="#3E5964" transform="translate(241,235)"/>
<path d="M0,0 L3,3 L5,5 L-1,6 L0,10 L-3,10 L-7,5 L-1,4 Z " fill="#05ABAC" transform="translate(290,576)"/>
<path d="M0,0 L8,0 L13,5 L12,8 L11,6 L8,4 L7,3 L-1,3 Z " fill="#32515D" transform="translate(228,267)"/>
<path d="M0,0 L4,5 L6,8 L0,7 L-1,10 L-3,10 L-2,3 Z " fill="#35535F" transform="translate(184,173)"/>
<path d="M0,0 L4,2 L4,5 L7,6 L8,10 L11,11 L12,14 L9,14 L0,2 Z " fill="#63AFB4" transform="translate(181,434)"/>
<path d="M0,0 L8,0 L14,4 L15,8 L9,4 L6,4 L6,2 L0,1 Z " fill="#E5E4E0" transform="translate(296,304)"/>
<path d="M0,0 L3,1 L3,4 L5,5 L4,8 L10,7 L12,9 L10,10 L3,9 L1,7 L0,7 Z " fill="#DDDCD8" transform="translate(422,201)"/>
<path d="M0,0 L2,1 L7,17 L6,20 L2,11 Z " fill="#EA6A5C" transform="translate(501,145)"/>
<path d="M0,0 L1,4 L-9,12 L-11,11 L-9,6 L-2,4 Z " fill="#E04866" transform="translate(197,118)"/>
<path d="M0,0 L17,0 L15,2 L12,2 L11,4 L10,3 L8,4 L8,2 L0,1 Z " fill="#F04A59" transform="translate(283,6)"/>
<path d="M0,0 L2,0 L1,4 L-3,10 L-4,8 L-6,7 L-4,3 L0,3 Z " fill="#41BAB6" transform="translate(352,520)"/>
<path d="M0,0 L4,2 L7,5 L8,11 L10,12 L7,12 L0,2 Z " fill="#57ABB2" transform="translate(149,390)"/>
<path d="M0,0 L4,2 L2,7 L-3,15 L-5,11 L-2,11 L-2,6 L0,5 Z " fill="#68C4BD" transform="translate(465,359)"/>
<path d="M0,0 L8,1 L6,2 L5,4 L3,3 L5,9 L2,9 L-1,6 L1,6 L2,2 L0,2 Z " fill="#DADAD7" transform="translate(357,243)"/>
<path d="M0,0 L9,2 L9,3 L-11,3 L-11,2 Z " fill="#ECEBE7" transform="translate(271,169)"/>
<path d="M0,0 L9,3 L6,6 L6,9 L2,5 Z M9,2 Z " fill="#44AEB1" transform="translate(278,571)"/>
<path d="M0,0 L2,1 L1,3 L-1,3 L-2,6 L-10,13 L-13,13 Z " fill="#42AF9F" transform="translate(386,325)"/>
<path d="M0,0 L1,2 L-1,6 L0,8 L-7,7 L-5,3 L-3,1 L-1,1 Z " fill="#3F5965" transform="translate(375,266)"/>
<path d="M0,0 L1,2 L-8,19 L-9,15 L-5,7 Z " fill="#D54868" transform="translate(171,146)"/>
<path d="M0,0 L2,2 L5,10 L4,13 L2,13 L2,9 L0,9 L-1,11 Z " fill="#E39E95" transform="translate(498,133)"/>
<path d="M0,0 L4,1 L-1,2 L-2,4 L-7,5 L-9,6 L-13,4 Z " fill="#CDA2A6" transform="translate(241,11)"/>
<path d="M0,0 L4,1 L4,6 L0,7 L-1,12 L-3,14 L-1,4 L1,4 Z " fill="#E7E5E0" transform="translate(289,298)"/>
<path d="M0,0 L2,1 L0,6 L-3,5 L-1,11 L-3,11 L-4,8 L-6,7 L-4,3 Z " fill="#D73C5C" transform="translate(164,51)"/>
<path d="M0,0 L3,1 L-1,2 L0,6 L-4,8 L-7,6 L-4,6 L-4,4 L-9,5 L-7,3 Z " fill="#E2425D" transform="translate(220,19)"/>
<path d="M0,0 L3,1 L-1,5 L-8,9 L-12,11 L-12,9 Z " fill="#2E4F5B" transform="translate(282,193)"/>
<path d="M0,0 L8,0 L11,3 L7,3 L3,3 L2,5 L0,3 Z " fill="#E5E3DE" transform="translate(260,199)"/>
<path d="M0,0 L3,3 L3,5 L7,7 L7,10 L2,9 L2,6 L-1,5 L-2,1 Z " fill="#445E69" transform="translate(271,176)"/>
<path d="M0,0 L2,0 L3,4 L-1,6 L2,8 L1,11 L-3,12 L-2,5 Z " fill="#445E6A" transform="translate(404,173)"/>
<path d="M0,0 L4,1 L3,4 L-4,9 L-6,8 L-2,6 L-2,4 L-5,5 L-4,2 L0,3 Z " fill="#31515D" transform="translate(284,175)"/>
<path d="M0,0 L7,0 L7,4 L-1,3 L-2,1 Z " fill="#E24B63" transform="translate(249,10)"/>
<path d="M0,0 L1,3 L3,3 L4,0 L6,3 L4,3 L5,8 L4,6 L-1,5 Z " fill="#3B5763" transform="translate(238,297)"/>
<path d="M0,0 L13,2 L14,4 L-2,4 Z " fill="#E6E4E0" transform="translate(248,272)"/>
<path d="M0,0 L3,1 L2,7 L-2,11 L-1,4 L1,4 Z " fill="#45B9B6" transform="translate(341,532)"/>
<path d="M0,0 L5,3 L4,7 L2,9 L2,6 L0,6 L-1,1 Z " fill="#2CB6B2" transform="translate(342,527)"/>
<path d="M0,0 L0,3 L-4,9 L-7,5 Z " fill="#5EC3BC" transform="translate(451,387)"/>
<path d="M0,0 L5,0 L5,2 L-2,4 L-7,9 L-7,6 Z " fill="#2C4C5A" transform="translate(275,296)"/>
<path d="M0,0 L7,0 L11,2 L10,4 L1,2 L0,5 L-2,2 Z " fill="#E0E0DD" transform="translate(229,258)"/>
<path d="M0,0 L3,1 L4,3 L7,5 L5,6 L3,10 L0,3 Z " fill="#E8E7E3" transform="translate(415,173)"/>
<path d="M0,0 L3,0 L2,5 L-2,9 L-2,3 Z " fill="#47BFB9" transform="translate(382,476)"/>
<path d="M0,0 L6,1 L5,6 L2,10 L1,6 L3,6 L3,1 Z " fill="#55BEB5" transform="translate(467,351)"/>
<path d="M0,0 L8,0 L9,2 L2,2 L-3,7 L-6,8 L-4,4 Z " fill="#2A4B59" transform="translate(294,312)"/>
<path d="M0,0 L0,3 L-5,9 L-7,13 L-7,11 L-9,10 Z " fill="#60A38F" transform="translate(403,307)"/>
<path d="M0,0 L4,1 L1,4 L3,4 L2,7 L5,9 L-1,8 L0,3 L-2,2 L0,2 Z " fill="#46606C" transform="translate(300,293)"/>
<path d="M0,0 L5,2 L6,4 L2,4 L0,7 L2,9 L-2,8 L-2,5 L0,5 Z " fill="#E2E2DE" transform="translate(332,256)"/>
<path d="M0,0 L2,0 L2,2 L5,2 L5,4 L1,5 L0,7 L-2,3 L-2,1 Z " fill="#3F5965" transform="translate(410,232)"/>
<path d="M0,0 L3,4 L0,4 L-2,7 L-4,5 L-7,4 L-8,1 L-6,1 L-6,3 Z " fill="#C0517F" transform="translate(145,192)"/>
<path d="M0,0 L4,0 L4,2 L1,2 L3,7 L-1,6 L-4,6 L-2,2 Z " fill="#35525E" transform="translate(250,175)"/>
<path d="M0,0 L8,0 L12,2 L5,3 L1,3 Z " fill="#F05355" transform="translate(328,8)"/>
<path d="M0,0 L1,2 L0,4 L-2,4 L-4,8 L-6,5 L-6,1 L-1,3 Z " fill="#8173A1" transform="translate(102,277)"/>
<path d="M0,0 L4,0 L3,5 L-1,12 L-2,10 L1,2 L-1,1 Z " fill="#E9E7E3" transform="translate(431,255)"/>
<path d="M0,0 L4,1 L2,1 L3,6 L0,7 L-2,5 L-2,1 Z " fill="#06A5A6" transform="translate(291,581)"/>
<path d="M0,0 L4,1 L4,5 L7,6 L8,9 L5,9 L0,2 Z " fill="#56ADB2" transform="translate(237,510)"/>
<path d="M0,0 L4,2 L7,4 L6,8 L1,3 Z " fill="#43A9B0" transform="translate(175,426)"/>
<path d="M0,0 L3,1 L1,5 L-4,5 L-7,2 Z " fill="#E5E4DF" transform="translate(273,323)"/>
<path d="M0,0 L1,0 L1,7 L3,7 L5,12 L1,10 L-1,6 L-1,1 Z " fill="#2F4F5C" transform="translate(217,279)"/>
<path d="M0,0 L1,0 L0,9 L-2,15 L-4,14 L-4,12 L-2,12 L-1,3 Z " fill="#959783" transform="translate(510,256)"/>
<path d="M0,0 L2,1 L5,5 L4,6 L8,8 L3,8 L1,5 L-2,4 Z " fill="#D2D3D0" transform="translate(226,259)"/>
<path d="M0,0 L6,2 L4,4 L1,3 L-4,5 L-4,2 Z " fill="#455F6B" transform="translate(312,249)"/>
<path d="M0,0 L9,1 L14,2 L14,3 L4,3 L0,1 Z " fill="#E5E5E2" transform="translate(258,241)"/>
<path d="M0,0 L7,1 L14,4 L10,6 L10,4 L5,3 L0,1 Z " fill="#284A58" transform="translate(350,177)"/>
<path d="M0,0 L4,1 L1,1 L1,6 L-1,6 L-1,3 L-9,3 L-9,2 Z " fill="#E2D7D5" transform="translate(228,110)"/>
<path d="M0,0 L5,2 L8,8 L10,11 L6,9 L3,4 L0,2 Z " fill="#E04C6B" transform="translate(147,81)"/>
<path d="M0,0 L1,0 L1,8 L-3,12 L-3,6 L-1,4 Z " fill="#52C1BC" transform="translate(368,494)"/>
<path d="M0,0 L2,0 L2,5 L-2,9 L-2,3 Z " fill="#3CBCB6" transform="translate(371,491)"/>
<path d="M0,0 L3,0 L1,6 L-2,10 L-3,6 Z " fill="#6FC4BC" transform="translate(477,341)"/>
<path d="M0,0 L2,2 L3,10 L2,15 L1,15 L-1,5 Z " fill="#D2D4D1" transform="translate(286,292)"/>
<path d="M0,0 L2,0 L2,2 L4,2 L3,5 L-2,5 L-3,1 Z " fill="#DEDCD7" transform="translate(211,277)"/>
<path d="M0,0 L3,2 L1,6 L-6,4 L-6,1 L-4,1 L-4,3 L0,2 Z " fill="#3B5662" transform="translate(323,241)"/>
<path d="M0,0 L8,0 L8,1 L2,2 L5,6 L4,9 L0,4 Z " fill="#4A646F" transform="translate(225,181)"/>
<path d="M0,0 L5,1 L5,3 L1,3 L1,6 L-1,6 L-2,8 L-1,1 Z " fill="#DFDDD9" transform="translate(420,178)"/>
<path d="M0,0 L4,2 L6,6 L5,9 L0,2 Z " fill="#54ACB0" transform="translate(261,545)"/>
<path d="M0,0 L2,0 L2,3 L4,3 L7,9 L4,9 L0,3 Z " fill="#5FA8B2" transform="translate(137,371)"/>
<path d="M0,0 L1,3 L-2,10 L-3,8 L-5,8 L-4,3 L-1,2 Z " fill="#8FC2B7" transform="translate(496,305)"/>
<path d="M0,0 L2,0 L1,6 L-5,6 L-5,4 L-2,3 L-1,1 Z " fill="#3E5965" transform="translate(294,252)"/>
<path d="M0,0 L2,1 L-2,6 L-6,6 L-6,8 L-8,8 L-7,5 Z " fill="#2D4D5A" transform="translate(294,184)"/>
<path d="M0,0 L5,4 L4,6 L1,4 L-5,6 L-4,3 L0,2 Z " fill="#E89086" transform="translate(462,77)"/>
<path d="M0,0 L9,0 L5,4 L-3,2 Z " fill="#E3485D" transform="translate(260,8)"/>
<path d="M0,0 L4,2 L7,8 L4,8 L0,2 Z " fill="#60AFB4" transform="translate(244,520)"/>
<path d="M0,0 L1,2 L-4,11 L-7,10 Z " fill="#869682" transform="translate(422,281)"/>
<path d="M0,0 L1,2 L3,3 L1,4 L1,7 L-5,4 L-3,1 L-1,1 Z " fill="#445E6A" transform="translate(222,275)"/>
<path d="M0,0 L5,1 L10,5 L6,6 L3,3 L-1,1 Z " fill="#3D5864" transform="translate(221,250)"/>
<path d="M0,0 L7,5 L3,6 L-1,5 Z " fill="#45606C" transform="translate(196,246)"/>
<path d="M0,0 L4,1 L1,1 L4,7 L2,7 L0,5 L-4,6 Z " fill="#B94A7A" transform="translate(111,186)"/>
<path d="M0,0 L1,3 L-3,13 L-4,13 L-4,8 Z " fill="#B93B57" transform="translate(99,138)"/>
<path d="M0,0 L9,0 L7,2 L-3,3 L0,2 Z " fill="#E6E7E4" transform="translate(339,111)"/>
<path d="M0,0 L3,1 L3,4 L6,5 L7,8 L4,8 L0,2 Z M6,4 Z " fill="#55AAAF" transform="translate(253,533)"/>
<path d="M0,0 L4,2 L5,6 L3,8 L0,3 Z " fill="#5BA8B3" transform="translate(132,363)"/>
<path d="M0,0 L2,0 L3,6 L2,8 L-1,7 Z " fill="#455F6B" transform="translate(295,276)"/>
<path d="M0,0 L3,3 L4,10 L2,10 Z " fill="#8F9AAD" transform="translate(89,267)"/>
<path d="M0,0 L4,2 L3,8 L-1,6 L-2,4 L1,3 L-1,1 Z " fill="#33515D" transform="translate(211,259)"/>
<path d="M0,0 L0,3 L-2,4 L-1,8 L-2,6 L-6,6 L-5,3 Z " fill="#2F4F5C" transform="translate(303,178)"/>
<path d="M0,0 L3,0 L3,5 L0,5 L-1,7 L-2,3 L1,3 Z " fill="#445F6B" transform="translate(253,174)"/>
<path d="M0,0 L5,1 L8,2 L7,5 L-3,2 Z " fill="#E1D5D2" transform="translate(215,113)"/>
<path d="M0,0 L2,3 L0,3 L-1,7 L-4,10 L-4,7 Z " fill="#B54A62" transform="translate(115,105)"/>
<path d="M0,0 L4,1 L7,7 L4,7 Z " fill="#5EAEB2" transform="translate(272,563)"/>
<path d="M0,0 L3,1 L2,3 L-3,7 L-3,3 L0,2 Z " fill="#23ADB0" transform="translate(271,550)"/>
<path d="M0,0 L5,0 L4,5 L2,6 L2,2 L0,2 Z " fill="#49C0B9" transform="translate(401,448)"/>
<path d="M0,0 L3,1 L5,6 L4,10 L0,2 Z " fill="#68A3B0" transform="translate(112,328)"/>
<path d="M0,0 L3,1 L1,1 L0,3 L-4,7 L-5,2 Z " fill="#DBDBD7" transform="translate(362,279)"/>
<path d="M0,0 L1,0 L1,6 L-3,6 L-3,1 Z " fill="#47626D" transform="translate(241,274)"/>
<path d="M0,0 L3,1 L-5,6 L-7,6 L-7,3 Z " fill="#2D4D5A" transform="translate(225,258)"/>
<path d="M0,0 L5,0 L4,2 L2,2 L2,4 L4,5 L0,4 L-2,1 Z " fill="#E3E2DE" transform="translate(367,254)"/>
<path d="M0,0 L2,0 L2,2 L0,2 L3,5 L3,7 L0,7 L-3,4 L-2,1 Z " fill="#33515D" transform="translate(388,175)"/>
<path d="M0,0 L2,0 L2,3 L4,4 L4,6 L-5,4 L-1,2 Z " fill="#D8DAD7" transform="translate(195,162)"/>
<path d="M0,0 L9,1 L7,3 L0,2 Z " fill="#76B9BC" transform="translate(295,591)"/>
<path d="M0,0 L5,2 L8,2 L6,5 L2,4 Z " fill="#46A8AB" transform="translate(289,587)"/>
<path d="M0,0 L3,0 L2,5 L0,7 L0,4 L-2,3 L0,3 Z " fill="#43B3B2" transform="translate(328,553)"/>
<path d="M0,0 L4,2 L5,6 L7,7 L4,7 L0,2 Z " fill="#58A8B0" transform="translate(166,414)"/>
<path d="M0,0 L2,4 L-2,10 L-3,8 Z " fill="#73C7C1" transform="translate(456,376)"/>
<path d="M0,0 L2,1 L2,8 L0,8 L-1,2 Z " fill="#7D6C9B" transform="translate(172,275)"/>
<path d="M0,0 L3,2 L7,3 L3,5 L-1,5 Z " fill="#3A5561" transform="translate(369,198)"/>
<path d="M0,0 L2,1 L2,3 L5,4 L4,6 L1,7 Z " fill="#33505D" transform="translate(177,196)"/>
<path d="M0,0 L9,0 L9,2 L3,3 Z " fill="#E9E7E3" transform="translate(392,166)"/>
<path d="M0,0 L2,1 L0,6 L-6,4 L-5,2 L0,3 Z " fill="#EC5972" transform="translate(206,71)"/>
<path d="M0,0 L2,0 L2,2 L-4,6 L-6,5 L-2,1 Z " fill="#D33D59" transform="translate(185,36)"/>
<path d="M0,0 L5,1 L7,5 L4,5 Z " fill="#68B5B8" transform="translate(283,581)"/>
<path d="M0,0 L2,0 L2,6 L-1,6 L-2,1 Z " fill="#0AA6A7" transform="translate(326,554)"/>
<path d="M0,0 L4,1 L8,5 L5,5 L0,2 Z " fill="#27A9B2" transform="translate(164,411)"/>
<path d="M0,0 L6,0 L5,4 L3,6 L3,2 L0,2 Z " fill="#4AC0B8" transform="translate(428,411)"/>
<path d="M0,0 L1,3 L-4,6 L-6,2 L0,2 Z " fill="#3AA9B3" transform="translate(167,405)"/>
<path d="M0,0 L2,1 L1,7 L-2,8 Z " fill="#28B7AF" transform="translate(452,380)"/>
<path d="M0,0 L2,1 L1,7 L-2,3 L-2,1 Z " fill="#4BB8AF" transform="translate(473,347)"/>
<path d="M0,0 L4,0 L2,6 L0,8 Z " fill="#87C4BA" transform="translate(489,315)"/>
<path d="M0,0 L3,1 L0,3 L0,5 L-3,6 L-4,1 Z " fill="#E8E6E2" transform="translate(357,303)"/>
<path d="M0,0 L2,3 L3,7 L1,9 L-1,4 Z " fill="#7E99AE" transform="translate(100,297)"/>
<path d="M0,0 L1,3 L-1,9 L-3,5 L-2,1 Z " fill="#B1C1B8" transform="translate(506,277)"/>
<path d="M0,0 L3,2 L3,6 L1,6 L0,8 Z " fill="#45606C" transform="translate(177,225)"/>
<path d="M0,0 L1,4 L0,6 L-4,7 L-2,2 Z " fill="#BC4D63" transform="translate(124,92)"/>
</svg>
